<?xml version="1.0" encoding="UTF-8"?>
<svg version="1.1" xmlns="http://www.w3.org/2000/svg" width="889" height="222">
<path d="M0 0 C11.88 0 23.76 0 36 0 C36 3.63 36 7.26 36 11 C28.74 11 21.48 11 14 11 C14 15.29 14 19.58 14 24 C20.93 24 27.86 24 35 24 C35 27.63 35 31.26 35 35 C28.07 35 21.14 35 14 35 C14 39.95 14 44.9 14 50 C21.26 50 28.52 50 36 50 C36.495 53.96 36.495 53.96 37 58 C39.27190719 54.43818377 41.54233594 50.87542744 43.8125 47.3125 C44.45509766 46.30509766 45.09769531 45.29769531 45.75976562 44.25976562 C46.38173828 43.28330078 47.00371094 42.30683594 47.64453125 41.30078125 C48.21534424 40.40528564 48.78615723 39.50979004 49.37426758 38.5871582 C49.91075928 37.733396 50.44725098 36.87963379 51 36 C51.58483154 35.16879639 52.16966309 34.33759277 52.7722168 33.48120117 C54.20232869 31.09108579 54.20232869 31.09108579 53.89648438 28.52587891 C52.83691314 25.54049654 51.42334543 23.21673082 49.65625 20.5859375 C48.65271484 19.07386719 48.65271484 19.07386719 47.62890625 17.53125 C46.57509766 15.96890625 46.57509766 15.96890625 45.5 14.375 C44.11167273 12.30142496 42.72612045 10.22598846 41.34375 8.1484375 C40.72693359 7.23239746 40.11011719 6.31635742 39.47460938 5.37255859 C38 3 38 3 37 0 C42.33257384 -1.14412814 47.83246943 -2.22209873 53 0 C57.65065556 4.76261346 60.36034276 11.11460107 63.01708984 17.14233398 C63.86099475 19.17275981 63.86099475 19.17275981 66 20 C66.24621094 19.32453125 66.49242187 18.6490625 66.74609375 17.953125 C68.26230379 14.3822378 70.11877348 11.10197203 72.0625 7.75 C72.42666016 7.11320312 72.79082031 6.47640625 73.16601562 5.8203125 C75.85925752 1.14074248 75.85925752 1.14074248 77 0 C79.53049402 -0.07313567 82.03304837 -0.09247527 84.5625 -0.0625 C85.62887695 -0.05573242 85.62887695 -0.05573242 86.71679688 -0.04882812 C88.47790013 -0.03700864 90.23896036 -0.01907263 92 0 C88.76751516 6.85678602 84.85861926 13.13665066 80.75 19.5 C80.1003125 20.51320313 79.450625 21.52640625 78.78125 22.5703125 C77.19103472 25.0491775 75.59722211 27.52564632 74 30 C78.88691799 37.7523251 83.90954426 45.39461251 89.07617188 52.96289062 C89.8409082 54.09694336 89.8409082 54.09694336 90.62109375 55.25390625 C91.0792749 55.92752197 91.53745605 56.6011377 92.00952148 57.29516602 C93 59 93 59 93 61 C87.64078688 62.22418574 82.18975265 63.2974352 77 61 C72.06182318 55.94907364 69.04593418 49.28615966 66.07470703 42.94946289 C65.15192129 40.83955236 65.15192129 40.83955236 63 40 C62.74202637 40.65484375 62.48405273 41.3096875 62.21826172 41.984375 C61.81623535 42.97953125 61.41420898 43.9746875 61 45 C60.77507874 45.62583984 60.55015747 46.25167969 60.31842041 46.89648438 C58.2408471 52.35503488 55.7804244 57.45253574 51 61 C42.71781532 63.67904381 33.4037419 62.48311189 24.875 62 C16.66625 61.67 8.4575 61.34 0 61 C0 40.87 0 20.74 0 0 Z " fill="#000000" transform="translate(793,83)"/>
<path d="M0 0 C5.94 0 11.88 0 18 0 C21.375 9 21.375 9 22.3503418 12.12109375 C22.57330933 12.83072266 22.79627686 13.54035156 23.02600098 14.27148438 C23.24816284 14.98626953 23.47032471 15.70105469 23.69921875 16.4375 C23.91243774 17.11748047 24.12565674 17.79746094 24.34533691 18.49804688 C25.1285059 20.99793233 25.90778597 23.49903479 26.6875 26 C28.440625 31.61 30.19375 37.22 32 43 C39.425 21.715 39.425 21.715 47 0 C52.94 0 58.88 0 65 0 C65 20.13 65 40.26 65 61 C61.04 61 57.08 61 53 61 C52.67 47.8 52.34 34.6 52 21 C50.60974609 25.20556641 50.60974609 25.20556641 49.19140625 29.49609375 C48.2952345 32.20019055 47.39803442 34.90394409 46.50073242 37.60766602 C45.87595616 39.49207446 45.25225558 41.37683989 44.62963867 43.26196289 C43.73636518 45.96594511 42.83927617 48.66863487 41.94140625 51.37109375 C41.6622084 52.21900986 41.38301056 53.06692596 41.09535217 53.9405365 C39.11387171 59.88612829 39.11387171 59.88612829 38 61 C35.81360547 61.07258946 33.62499611 61.08373783 31.4375 61.0625 C29.64119141 61.04896484 29.64119141 61.04896484 27.80859375 61.03515625 C26.88175781 61.02355469 25.95492187 61.01195312 25 61 C23.77188803 57.19589526 22.54514566 53.39135167 21.31958008 49.58642578 C20.7013795 47.66806987 20.08214688 45.75004664 19.46289062 43.83203125 C19.06650391 42.60097656 18.67011719 41.36992188 18.26171875 40.1015625 C17.90037842 38.98088379 17.53903809 37.86020508 17.16674805 36.70556641 C15.73268525 32.15101417 14.37208186 27.57360619 13 23 C12.67 35.54 12.34 48.08 12 61 C8.04 61 4.08 61 0 61 C0 40.87 0 20.74 0 0 Z " fill="#000000" transform="translate(669,83)"/>
<path d="M0 0 C5.61 0 11.22 0 17 0 C20.27643728 3.3305039 21.23393029 4.9124754 23 9 C23.96294839 10.6833468 24.9272732 12.36609338 25.91744995 14.03356934 C26.98983108 15.84393021 28.03297686 17.66825544 29.06835938 19.5 C29.59079224 20.42425781 29.59079224 20.42425781 30.1237793 21.3671875 C30.47480713 21.98851563 30.82583496 22.60984375 31.1875 23.25 C32.25682001 25.13575539 33.32708328 27.02097158 34.39778137 28.90594482 C35.36208658 30.60468199 36.32405973 32.30474236 37.28588867 34.00488281 C38.82261402 36.69004826 40.40824972 39.34708287 42 42 C42 28.14 42 14.28 42 0 C46.29 0 50.58 0 55 0 C55 20.13 55 40.26 55 61 C49.06 61 43.12 61 37 61 C31.15982135 53.21309514 31.15982135 53.21309514 29.5234375 49.37890625 C26.60665197 42.95686092 22.97385577 36.99448432 19.375 30.9375 C17.27125 27.328125 15.1675 23.71875 13 20 C12.67 33.53 12.34 47.06 12 61 C8.04 61 4.08 61 0 61 C0 40.87 0 20.74 0 0 Z " fill="#000000" transform="translate(385,83)"/>
<path d="M0 0 C6.92536325 4.52812212 10.54124577 11.03554917 12.3125 19 C14.06644312 29.82433469 13.40900811 41.71592283 7 51 C1.71184736 56.93403387 -4.06658463 59.68392198 -11.9375 60.31640625 C-21.11924245 60.67965355 -29.80830611 60.55880168 -37.05078125 54.19921875 C-45.1301113 45.58461217 -46.40332938 36.29475362 -46.21875 24.8046875 C-45.74656965 16.5921222 -43.45553803 9.04695157 -37.2109375 3.375 C-27.16640809 -4.6916491 -11.54635243 -6.00410326 0 0 Z M-28 13 C-32.05276032 19.84776744 -32.7799395 28.04293191 -31.3125 35.8125 C-30.20058199 39.84861798 -28.89382655 42.8835714 -26 46 C-21.70458471 48.3891659 -17.61545138 49.45834648 -12.75 48.5 C-8.84304674 47.22362483 -6.53138924 45.27591549 -4 42 C-0.95783701 34.60274053 -0.28769034 24.48033299 -3.125 16.875 C-5.350227 13.46298527 -7.25955409 10.70431608 -11 9 C-17.53074532 7.89210571 -23.08088496 8.20386284 -28 13 Z " fill="#000000" transform="translate(556,85)"/>
<path d="M0 0 C6.92536325 4.52812212 10.54124577 11.03554917 12.3125 19 C14.06644312 29.82433469 13.40900811 41.71592283 7 51 C1.71184736 56.93403387 -4.06658463 59.68392198 -11.9375 60.31640625 C-21.11924245 60.67965355 -29.80830611 60.55880168 -37.05078125 54.19921875 C-45.1301113 45.58461217 -46.40332938 36.29475362 -46.21875 24.8046875 C-45.74656965 16.5921222 -43.45553803 9.04695157 -37.2109375 3.375 C-27.16640809 -4.6916491 -11.54635243 -6.00410326 0 0 Z M-28 13 C-32.05276032 19.84776744 -32.7799395 28.04293191 -31.3125 35.8125 C-30.20058199 39.84861798 -28.89382655 42.8835714 -26 46 C-21.70458471 48.3891659 -17.61545138 49.45834648 -12.75 48.5 C-8.84304674 47.22362483 -6.53138924 45.27591549 -4 42 C-0.95783701 34.60274053 -0.28769034 24.48033299 -3.125 16.875 C-5.350227 13.46298527 -7.25955409 10.70431608 -11 9 C-17.53074532 7.89210571 -23.08088496 8.20386284 -28 13 Z " fill="#000000" transform="translate(493,85)"/>
<path d="M0 0 C30.17857143 0 30.17857143 0 37.8125 4.75 C41.5181208 8.56149568 43.14007403 12.72948682 43.375 18 C43.1526208 22.79041859 41.90385827 26.98952567 38.53515625 30.546875 C34.56794242 34 34.56794242 34 32 34 C37.19247373 41.86161951 37.19247373 41.86161951 42.53515625 49.62109375 C42.94644775 50.20673096 43.35773926 50.79236816 43.78149414 51.39575195 C44.95473505 53.06076204 46.13350899 54.72186909 47.3125 56.3828125 C49 59 49 59 49 61 C43.84616349 61.59696948 39.14009977 61.84516635 34 61 C30.55595338 58.25525218 28.969565 54.88256287 27 51 C25.70235629 48.99032912 24.39006451 46.99003234 23.0625 45 C20 40.26153846 20 40.26153846 20 38 C18.02 38 16.04 38 14 38 C14 45.59 14 53.18 14 61 C9.38 61 4.76 61 0 61 C0 40.87 0 20.74 0 0 Z M14 11 C14 16.28 14 21.56 14 27 C21.8124647 27.19585126 21.8124647 27.19585126 27.875 23.25 C29.4472882 20.1054236 28.98936706 18.32144655 28 15 C26.22861804 12.57661099 25.28956967 12.05489671 22.30078125 11.48828125 C21.31464844 11.43027344 20.32851563 11.37226562 19.3125 11.3125 C16.6828125 11.1578125 16.6828125 11.1578125 14 11 Z " fill="#000000" transform="translate(576,83)"/>
<path d="M0 0 C5.61 0 11.22 0 17 0 C20.31292772 7.80850158 23.39564976 15.63539032 26.20703125 23.63671875 C26.76241829 25.20580742 26.76241829 25.20580742 27.32902527 26.80659485 C28.10106231 28.98988811 28.87150187 31.17374688 29.64038086 33.3581543 C30.82346835 36.71865504 32.01193189 40.07721908 33.20117188 43.43554688 C33.95343597 45.56499434 34.70540032 47.69454772 35.45703125 49.82421875 C35.81320023 50.83135422 36.1693692 51.83848969 36.53633118 52.87614441 C36.8605455 53.79833267 37.18475983 54.72052094 37.51879883 55.6706543 C37.80572098 56.48495407 38.09264313 57.29925385 38.38825989 58.13822937 C39 60 39 60 39 61 C34.05 61 29.1 61 24 61 C20 51.5 20 51.5 20 47 C12.74 47 5.48 47 -2 47 C-2.474375 48.93875 -2.94875 50.8775 -3.4375 52.875 C-4.875 58.75 -4.875 58.75 -6 61 C-10.95 61 -15.9 61 -21 61 C-18.86721284 53.7170686 -16.51983191 46.54070176 -14.0234375 39.375 C-13.65272125 38.30628662 -13.282005 37.23757324 -12.90005493 36.13647461 C-12.12285257 33.89743699 -11.3446304 31.65875312 -10.56542969 29.42041016 C-9.36908794 25.98301313 -8.17650052 22.54433 -6.984375 19.10546875 C-6.22678259 16.92440271 -5.46897775 14.74341043 -4.7109375 12.5625 C-4.3536557 11.53237793 -3.9963739 10.50225586 -3.62826538 9.44091797 C-3.2976712 8.4923291 -2.96707703 7.54374023 -2.62646484 6.56640625 C-2.19036392 5.31259155 -2.19036392 5.31259155 -1.74545288 4.03344727 C-1 2 -1 2 0 0 Z M8 13 C6.99553896 16.2903223 5.99719244 19.58246822 5 22.875 C4.57074219 24.28072266 4.57074219 24.28072266 4.1328125 25.71484375 C3.72675781 27.05869141 3.72675781 27.05869141 3.3125 28.4296875 C3.06113281 29.25710449 2.80976563 30.08452148 2.55078125 30.93701172 C1.91401757 32.96617846 1.91401757 32.96617846 2 35 C6.62 35 11.24 35 16 35 C15.05117167 31.51797907 14.09149034 28.03961757 13.125 24.5625 C12.85558594 23.56927734 12.58617187 22.57605469 12.30859375 21.55273438 C12.04433594 20.60849609 11.78007812 19.66425781 11.5078125 18.69140625 C11.26691895 17.81685791 11.02602539 16.94230957 10.77783203 16.04125977 C10.19293381 13.81456717 10.19293381 13.81456717 8 13 Z " fill="#000000" transform="translate(283,83)"/>
<path d="M0 0 C3.16782637 1.59470231 5.16158132 3.46744476 7.65974426 5.98538208 C8.12864578 6.45384552 8.5975473 6.92230896 9.08065796 7.40496826 C10.61904584 8.94543564 12.14655079 10.49623218 13.67414856 12.0473938 C14.74251712 13.12136129 15.81155272 14.19466558 16.88122559 15.26733398 C19.68756637 18.08510008 22.48477892 20.91176005 25.28016663 23.74038696 C28.13714047 26.62811151 31.002682 29.50730642 33.86750793 32.38723755 C39.48203375 38.0338867 45.08694199 43.68996334 50.68586731 49.3520813 C49.74480346 50.4599167 48.80230004 51.56652933 47.85920715 52.67263794 C47.33450836 53.28901627 46.80980957 53.90539459 46.26921082 54.54045105 C44.05841453 57.07000033 41.70186675 59.43089266 39.31086731 61.7895813 C38.43688293 62.65454224 37.56289856 63.51950317 36.66242981 64.41067505 C36.01016418 65.05133911 35.35789856 65.69200317 34.68586731 66.3520813 C31.05968889 64.81568569 28.70763223 62.64430321 25.91731262 59.8899231 C24.9766394 58.96523727 24.03596619 58.04055145 23.06678772 57.08784485 C22.04871152 56.07614376 21.03112461 55.06395009 20.01399231 54.05130005 C18.96603251 53.01230953 17.91799672 51.97339565 16.86988831 50.93455505 C14.67737856 48.75851356 12.48928193 46.57813542 10.30354309 44.39529419 C7.50188017 41.59902672 4.68440499 38.81928909 1.86273575 36.04323101 C-0.3058349 33.90439003 -2.46307802 31.75439567 -4.61733246 29.60114479 C-5.65148409 28.57120007 -6.68975896 27.54537828 -7.73218536 26.52380943 C-9.18760122 25.09522934 -10.62580987 23.64918228 -12.06315613 22.2024231 C-12.88604126 21.38460861 -13.70892639 20.56679413 -14.55674744 19.72419739 C-16.5953065 16.97255329 -16.79794123 15.698494 -16.31413269 12.3520813 C-15.24430847 10.69876099 -15.24430847 10.69876099 -13.75944519 9.2739563 C-13.22706238 8.75317505 -12.69467957 8.2323938 -12.14616394 7.6958313 C-11.58284363 7.1698938 -11.01952332 6.6439563 -10.43913269 6.1020813 C-9.88354675 5.56067505 -9.32796082 5.0192688 -8.75553894 4.4614563 C-3.19785599 -0.89534654 -3.19785599 -0.89534654 0 0 Z " fill="#3E9FE5" transform="translate(17.314132690429688,73.64791870117188)"/>
<path d="M0 0 C2.33982864 1.71163712 4.34045033 3.69093769 6.375 5.75 C6.93316406 6.2759375 7.49132812 6.801875 8.06640625 7.34375 C9.6484375 8.921875 9.6484375 8.921875 12 12 C11.87156746 16.70845713 9.63412914 18.85317653 6.38842773 22.06567383 C5.91035675 22.54432892 5.43228577 23.02298401 4.93972778 23.5161438 C3.36364824 25.08944575 1.77389727 26.64811944 0.18359375 28.20703125 C-0.91443979 29.29760126 -2.01159111 30.38906018 -3.1078949 31.48136902 C-5.9909131 34.34913981 -8.88574174 37.20469387 -11.78320312 40.05786133 C-14.73965548 42.973342 -17.68476868 45.9002277 -20.63085938 48.82617188 C-26.40954146 54.56199882 -32.20075148 60.28496807 -38 66 C-39.1078354 65.05893615 -40.21444803 64.11643273 -41.32055664 63.17333984 C-41.93693497 62.64864105 -42.55331329 62.12394226 -43.18836975 61.58334351 C-45.71791903 59.37254722 -48.07881136 57.01599944 -50.4375 54.625 C-51.30246094 53.75101563 -52.16742188 52.87703125 -53.05859375 51.9765625 C-53.69925781 51.32429688 -54.33992188 50.67203125 -55 50 C-51.3326312 43.71039105 -46.19406377 38.92412094 -41.0546875 33.82421875 C-40.07833953 32.84906455 -39.10236276 31.87353856 -38.1267395 30.8976593 C-36.0906666 28.86314356 -34.05129939 26.83201104 -32.00927734 24.8034668 C-29.39020699 22.20146445 -26.77784718 19.59284828 -24.16767693 16.9819212 C-22.1571473 14.97166308 -20.14402561 12.96401821 -18.1300087 10.95725441 C-17.16533725 9.99576603 -16.20127106 9.03367001 -15.23781967 8.07095909 C-13.89527234 6.73057464 -12.54904285 5.39388132 -11.20263672 4.05737305 C-10.43748749 3.29603561 -9.67233826 2.53469818 -8.88400269 1.75028992 C-5.68790253 -1.21897436 -4.11830594 -1.36890169 0 0 Z " fill="#3E9FE5" transform="translate(167,40)"/>
<path d="M0 0 C9.14551571 7.61335197 17.45846083 16.12086613 25.8996582 24.49462891 C27.92944647 26.50649862 29.96744625 28.50947298 32.01293945 30.50537109 C34.49822246 32.93050951 36.96850177 35.37001084 39.42874336 37.82054138 C40.81722068 39.19633361 42.22027745 40.55736155 43.6235199 41.91809082 C44.88096764 43.17970032 44.88096764 43.17970032 46.16381836 44.46679688 C47.27798378 45.5655011 47.27798378 45.5655011 48.41465759 46.68640137 C50.46419718 49.6774347 50.46485406 51.44279736 50 55 C48.31315305 57.23632774 46.82385174 58.93024658 44.8125 60.8125 C44.32974609 61.30169922 43.84699219 61.79089844 43.34960938 62.29492188 C40.33759851 65.21798745 38.19488798 66.70318763 34 67 C32.11218262 65.91343689 32.11218262 65.91343689 30.31054688 64.17944336 C29.6214624 63.5275705 28.93237793 62.87569763 28.22241211 62.20407104 C27.48901611 61.4767276 26.75562012 60.74938416 26 60 C25.23244385 59.25420685 24.4648877 58.5084137 23.67407227 57.74002075 C21.10637051 55.22243226 18.56654437 52.67911429 16.03125 50.12890625 C15.11033569 49.206577 14.18942139 48.28424774 13.24060059 47.33396912 C10.81852446 44.90811523 8.39946921 42.47927148 5.9810791 40.04974365 C3.50226163 37.56060884 1.02053203 35.07438105 -1.4609375 32.58789062 C-6.31010924 27.72806542 -11.15608863 22.86506822 -16 18 C-14.55695686 14.98590694 -13.13408132 12.89527984 -10.7421875 10.546875 C-10.11699219 9.928125 -9.49179688 9.309375 -8.84765625 8.671875 C-8.19667969 8.03765625 -7.54570313 7.4034375 -6.875 6.75 C-6.21628906 6.1003125 -5.55757812 5.450625 -4.87890625 4.78125 C-3.25702872 3.18287794 -1.62981741 1.59026294 0 0 Z " fill="#3E9FE5" transform="translate(94,150)"/>
<path d="M0 0 C2.93230193 1.32120828 4.98664899 2.74638197 7.234375 5.0390625 C7.80800781 5.61914062 8.38164063 6.19921875 8.97265625 6.796875 C9.85244141 7.70179687 9.85244141 7.70179687 10.75 8.625 C11.35199219 9.23601562 11.95398438 9.84703125 12.57421875 10.4765625 C14.05405305 11.97988624 15.52764676 13.48934856 17 15 C15.46425913 18.61965466 13.29879192 20.97733102 10.55371094 23.76855469 C9.63225281 24.70922791 8.71079468 25.64990112 7.76141357 26.61907959 C6.75295744 27.63722979 5.74393049 28.65481487 4.734375 29.671875 C3.69785326 30.71990732 2.66133393 31.76794203 1.62481689 32.815979 C-0.54686902 35.00864227 -2.72314977 37.19663745 -4.90185547 39.38232422 C-7.69085243 42.18230909 -10.46080346 45.00036993 -13.2267189 47.82313156 C-15.35967228 49.9933432 -17.50593485 52.15001148 -19.65605927 54.30319977 C-20.68328467 55.33647372 -21.70551123 56.37474261 -22.72254181 57.41805267 C-24.14613318 58.87578545 -25.59073311 60.3129117 -27.03613281 61.74902344 C-27.85172668 62.57190857 -28.66732056 63.3947937 -29.50762939 64.24261475 C-32.61022364 66.4302723 -34.27771864 66.52455106 -38 66 C-40.23632774 64.31315305 -41.93024658 62.82385174 -43.8125 60.8125 C-44.30169922 60.32974609 -44.79089844 59.84699219 -45.29492188 59.34960938 C-48.216753 56.33887053 -49.71634999 54.19625728 -50 50 C-48.84545898 48.04516602 -48.84545898 48.04516602 -47.05859375 46.19140625 C-46.40874512 45.50449707 -45.75889648 44.81758789 -45.08935547 44.10986328 C-44.39986816 43.4136084 -43.71038086 42.71735352 -43 42 C-42.35562988 41.33081543 -41.71125977 40.66163086 -41.04736328 39.97216797 C-39.07280296 37.939256 -37.07223468 35.93560651 -35.0625 33.9375 C-34.06573242 32.93493164 -34.06573242 32.93493164 -33.04882812 31.91210938 C-29.82968034 28.69920629 -26.57193348 25.58849418 -23.12109375 22.625 C-18.16835501 18.35129999 -13.60037639 13.70880948 -9 9.0625 C-8.12988281 8.18787109 -7.25976562 7.31324219 -6.36328125 6.41210938 C-4.23986451 4.27702551 -2.11883622 2.13962795 0 0 Z " fill="#3EA0E6" transform="translate(85,116)"/>
<path d="M0 0 C9.31603081 7.7406603 17.74474573 16.44423386 26.3269043 24.97680664 C28.40631779 27.04279559 30.49279728 29.10123624 32.58569336 31.15356445 C35.12709918 33.64574259 37.65609284 36.14989077 40.17656136 38.66323662 C41.59995876 40.07666922 43.03543386 41.47790529 44.47105408 42.87892151 C45.32937332 43.74009079 46.18769257 44.60126007 47.07202148 45.48852539 C48.21283424 46.61720787 48.21283424 46.61720787 49.37669373 47.76869202 C51 50 51 50 51.3941803 52.58518982 C50.75981346 56.47142033 48.13076303 58.71062776 45.4375 61.375 C44.92380859 61.93316406 44.41011719 62.49132812 43.88085938 63.06640625 C43.36201172 63.58847656 42.84316406 64.11054688 42.30859375 64.6484375 C41.60947876 65.36265869 41.60947876 65.36265869 40.89624023 66.09130859 C37.70595244 67.62011652 35.34489849 66.8554085 32 66 C29.38867187 64.08569336 29.38867187 64.08569336 26.96875 61.58984375 C25.62876953 60.22762695 25.62876953 60.22762695 24.26171875 58.83789062 C23.34095864 57.87127203 22.42038669 56.90447416 21.5 55.9375 C20.58863281 55.00744141 19.67726562 54.07738281 18.73828125 53.11914062 C14.87212433 49.14977461 11.07764652 45.14322424 7.46484375 40.94140625 C3.24779646 36.04771058 -1.3493479 31.54279394 -5.9375 27 C-6.81212891 26.12988281 -7.68675781 25.25976562 -8.58789062 24.36328125 C-10.72297449 22.23986451 -12.86037205 20.11883622 -15 18 C-13.66465724 15.05886531 -12.17535119 12.89154831 -9.9609375 10.546875 C-9.38085938 9.928125 -8.80078125 9.309375 -8.203125 8.671875 C-7.59984375 8.03765625 -6.9965625 7.4034375 -6.375 6.75 C-5.76398438 6.1003125 -5.15296875 5.450625 -4.5234375 4.78125 C-3.01971542 3.18354529 -1.51105248 1.59076396 0 0 Z " fill="#3E9FE5" transform="translate(162,81)"/>
<path d="M0 0 C3.69106008 0.6112351 5.0730848 2.28385687 7.68769836 4.93225098 C8.16635345 5.41017593 8.64500854 5.88810089 9.13816833 6.38050842 C10.71394237 7.9597599 12.27127788 9.5559651 13.82905579 11.1529541 C14.91940694 12.25263279 16.01086889 13.35121113 17.10339355 14.44873047 C19.97342081 17.33783199 22.82811637 20.2416329 25.67988586 23.14874268 C28.59355153 26.11359107 31.52145504 29.06430397 34.44819641 32.01623535 C40.18684321 37.80847741 45.90937165 43.61632429 51.62202454 49.4342041 C50.22605968 52.34039545 48.89138253 54.40542176 46.58296204 56.6685791 C46.00288391 57.24221191 45.42280579 57.81584473 44.82514954 58.40686035 C44.22186829 58.99338379 43.61858704 59.57990723 42.99702454 60.1842041 C42.38600891 60.78619629 41.77499329 61.38818848 41.14546204 62.00842285 C39.6421383 63.48825716 38.13267598 64.96185087 36.62202454 66.4342041 C32.99584612 64.8978085 30.64378946 62.72642601 27.85346985 59.9720459 C26.91279663 59.04736008 25.97212341 58.12267426 25.00294495 57.16996765 C23.98486875 56.15826656 22.96728184 55.1460729 21.95014954 54.13342285 C20.90218974 53.09443233 19.85415395 52.05551845 18.80604553 51.01667786 C16.61353578 48.84063636 14.42543915 46.66025822 12.23970032 44.47741699 C9.4380374 41.68114952 6.62056221 38.9014119 3.79889297 36.12535381 C1.63032233 33.98651284 -0.5269208 31.83651848 -2.68117523 29.68326759 C-3.71532686 28.65332287 -4.75360173 27.62750108 -5.79602814 26.60593224 C-7.251444 25.17735214 -8.68965264 23.73130508 -10.1269989 22.2845459 C-10.94988403 21.46673141 -11.77276917 20.64891693 -12.62059021 19.80632019 C-14.37797546 17.4342041 -14.37797546 17.4342041 -14.79673767 14.82563782 C-14.1189045 10.95472235 -11.41163993 8.74716524 -8.69047546 6.1217041 C-8.16002625 5.57191895 -7.62957703 5.02213379 -7.08305359 4.45568848 C-4.84639126 2.24646986 -3.14976221 0.57512775 0 0 Z " fill="#3E9FE5" transform="translate(84.37797546386719,4.5657958984375)"/>
<path d="M0 0 C32.40681818 0 32.40681818 0 38.05859375 4.71875 C38.74115234 5.60046875 38.74115234 5.60046875 39.4375 6.5 C39.91058594 7.0878125 40.38367188 7.675625 40.87109375 8.28125 C44.26238081 13.44445521 43.38650068 20.09310278 43 26 C41.30400117 31.48705505 37.68353309 34.85157066 33 38 C26.82452475 40.6639305 20.61423804 40.14863456 14 40 C14 46.93 14 53.86 14 61 C9.38 61 4.76 61 0 61 C0 40.87 0 20.74 0 0 Z M14 11 C14 16.61 14 22.22 14 28 C20.9791632 28.6455356 20.9791632 28.6455356 27.125 25.9375 C29.4780487 22.25105703 29.70341469 20.29864534 29 16 C26.78136971 13.09282927 25.48055071 12.16018357 22 11 C19.36 11 16.72 11 14 11 Z " fill="#000000" transform="translate(744,83)"/>
<path d="M0 0 C3.00760223 1.43658238 5.01838453 2.81900413 7.3125 5.25 C10.69808043 8.74550187 14.26855998 11.87777468 18 15 C16.55802532 18.28834683 14.76875893 20.49811282 12.25634766 23.05004883 C11.10472641 24.22565117 11.10472641 24.22565117 9.92984009 25.42500305 C9.09963348 26.26057236 8.26942688 27.09614166 7.4140625 27.95703125 C6.56073334 28.81938889 5.70740417 29.68174652 4.82821655 30.57023621 C3.02363904 32.38931341 1.21624301 34.20559827 -0.59375 36.01928711 C-3.36961729 38.80709414 -6.12629172 41.61300092 -8.8828125 44.41992188 C-10.63686944 46.18343764 -12.39204039 47.9458462 -14.1484375 49.70703125 C-14.97459564 50.55272171 -15.80075378 51.39841217 -16.65194702 52.26972961 C-17.42599884 53.0377037 -18.20005066 53.8056778 -18.99755859 54.59692383 C-19.67547455 55.27991043 -20.3533905 55.96289703 -21.05184937 56.6665802 C-23 58 -23 58 -25.14144897 57.80010986 C-27.41938895 56.81945224 -28.72464701 55.61633502 -30.453125 53.83984375 C-31.071875 53.21142578 -31.690625 52.58300781 -32.328125 51.93554688 C-32.96234375 51.27619141 -33.5965625 50.61683594 -34.25 49.9375 C-34.8996875 49.27427734 -35.549375 48.61105469 -36.21875 47.92773438 C-37.8194676 46.29170683 -39.41276193 44.64909088 -41 43 C-39.55419034 39.68386118 -37.75170208 37.50814272 -35.19287109 34.96582031 C-34.41221283 34.18531311 -33.63155457 33.40480591 -32.82723999 32.60064697 C-31.98448517 31.76821472 -31.14173035 30.93578247 -30.2734375 30.078125 C-29.41062164 29.21813904 -28.54780579 28.35815308 -27.65884399 27.47210693 C-24.90221971 24.7266769 -22.13872201 21.9882831 -19.375 19.25 C-17.50475143 17.38978217 -15.63495411 15.52911054 -13.765625 13.66796875 C-9.1823064 9.10670055 -4.59332522 4.55118989 0 0 Z " fill="#3EA0E5" transform="translate(153,116)"/>
<path d="M0 0 C1.1078354 0.94106385 2.21444803 1.88356727 3.32055664 2.82666016 C3.93693497 3.35135895 4.55331329 3.87605774 5.18836975 4.41665649 C7.71791903 6.62745278 10.07881136 8.98400056 12.4375 11.375 C13.30246094 12.24898437 14.16742188 13.12296875 15.05859375 14.0234375 C15.69925781 14.67570312 16.33992188 15.32796875 17 16 C15.55419034 19.31613882 13.75170208 21.49185728 11.19287109 24.03417969 C10.41221283 24.81468689 9.63155457 25.59519409 8.82723999 26.39935303 C7.98448517 27.23178528 7.14173035 28.06421753 6.2734375 28.921875 C5.41062164 29.78186096 4.54780579 30.64184692 3.65884399 31.52789307 C0.90221971 34.2733231 -1.86127799 37.0117169 -4.625 39.75 C-6.49524857 41.61021783 -8.36504589 43.47088946 -10.234375 45.33203125 C-14.8176936 49.89329945 -19.40667478 54.44881011 -24 59 C-28.40616929 56.8732066 -31.35554337 54.04802793 -34.8125 50.625 C-35.42287109 50.0475 -36.03324219 49.47 -36.66210938 48.875 C-37.23380859 48.31039062 -37.80550781 47.74578125 -38.39453125 47.1640625 C-38.91893799 46.65311035 -39.44334473 46.1421582 -39.98364258 45.61572266 C-41 44 -41 44 -40.80010986 42.15689087 C-39.77075651 39.38201838 -38.31644247 37.95609975 -36.21459961 35.87402344 C-35.01346779 34.67323151 -35.01346779 34.67323151 -33.78807068 33.44818115 C-32.91828079 32.59387512 -32.04849091 31.73956909 -31.15234375 30.859375 C-30.2659169 29.97719299 -29.37949005 29.09501099 -28.46620178 28.18609619 C-26.11236944 25.84621423 -23.75226246 23.51304602 -21.38885498 21.18286133 C-18.97711583 18.80185337 -16.57388521 16.41229147 -14.16992188 14.0234375 C-9.45441941 9.3410322 -4.73045844 4.66729272 0 0 Z " fill="#3E9FE5" transform="translate(85,47)"/>
<path d="M0 0 C2.72104156 0.99934029 4.14058014 2.38418454 6.20219421 4.42053223 C6.98592911 5.18835526 7.769664 5.95617828 8.57714844 6.74726868 C9.41271774 7.58263657 10.24828705 8.41800446 11.10917664 9.27868652 C12.40271309 10.56080269 12.40271309 10.56080269 13.72238159 11.86882019 C15.54260203 13.67823379 17.35885708 15.49164389 19.1714325 17.30871582 C21.95725802 20.09551532 24.76371569 22.86031444 27.57206726 25.62438965 C29.33573618 27.38285326 31.09814981 29.14257697 32.85917664 30.90368652 C34.12771233 32.14762932 34.12771233 32.14762932 35.421875 33.41670227 C36.18984909 34.19398178 36.95782318 34.97126129 37.74906921 35.77209473 C38.43205582 36.45302689 39.11504242 37.13395905 39.81872559 37.83552551 C41.15214539 39.79040527 41.15214539 39.79040527 40.95225525 41.93284607 C39.97141457 44.20999539 38.76802037 45.51549988 36.99198914 47.24353027 C36.04936218 48.17165527 36.04936218 48.17165527 35.08769226 49.11853027 C34.42833679 49.75274902 33.76898132 50.38696777 33.08964539 51.04040527 C32.0948114 52.01493652 32.0948114 52.01493652 31.07987976 53.00915527 C29.44385221 54.60987287 27.80123626 56.2031672 26.15214539 57.79040527 C22.83600657 56.34459562 20.6602881 54.54210736 18.1179657 51.98327637 C17.3374585 51.2026181 16.55695129 50.42195984 15.75279236 49.61764526 C14.92036011 48.77489044 14.08792786 47.93213562 13.23027039 47.06384277 C12.37028442 46.20102692 11.51029846 45.33821106 10.62425232 44.44924927 C7.87882229 41.69262498 5.14042849 38.92912729 2.40214539 36.16540527 C0.54192756 34.2951567 -1.31874407 32.42535938 -3.17988586 30.55603027 C-7.74115406 25.97271168 -12.29666473 21.3837305 -16.84785461 16.79040527 C-14.72106121 12.38423598 -11.89588255 9.4348619 -8.47285461 5.97790527 C-7.60660461 5.06234863 -7.60660461 5.06234863 -6.72285461 4.1282959 C-6.15824524 3.55659668 -5.59363586 2.98489746 -5.01191711 2.39587402 C-4.50096497 1.87146729 -3.99001282 1.34706055 -3.46357727 0.8067627 C-1.84785461 -0.20959473 -1.84785461 -0.20959473 0 0 Z " fill="#3E9FE5" transform="translate(94.84785461425781,82.2095947265625)"/>
<path d="M0 0 C4.62 0 9.24 0 14 0 C14 16.5 14 33 14 50 C21.92 50 29.84 50 38 50 C38 53.63 38 57.26 38 61 C25.46 61 12.92 61 0 61 C0 40.87 0 20.74 0 0 Z " fill="#000000" transform="translate(324,83)"/>
<path d="M0 0 C4.62 0 9.24 0 14 0 C14 20.13 14 40.26 14 61 C9.38 61 4.76 61 0 61 C0 40.87 0 20.74 0 0 Z " fill="#000000" transform="translate(645,83)"/>
<path d="M0 0 C4.71939422 1.57500642 7.30264531 4.57927557 10.65234375 8.15625 C11.29300781 8.81947266 11.93367188 9.48269531 12.59375 10.16601562 C14.16688295 11.79784756 15.72713609 13.44017396 17.27734375 15.09375 C15.91892355 18.13707765 14.39271351 20.21684151 12.01953125 22.546875 C11.39433594 23.165625 10.76914062 23.784375 10.125 24.421875 C9.47402344 25.05609375 8.82304688 25.6903125 8.15234375 26.34375 C7.49363281 26.9934375 6.83492187 27.643125 6.15625 28.3125 C4.53437732 29.91086727 2.90801565 31.50436897 1.27734375 33.09375 C-2.78753418 29.65648339 -6.79207055 26.195327 -10.59765625 22.46875 C-11.35820313 21.73398437 -12.11875 20.99921875 -12.90234375 20.2421875 C-14.75974901 18.04997099 -15.64866028 16.96251684 -15.72265625 14.09375 C-14.5 12.1640625 -14.5 12.1640625 -12.66015625 10.21875 C-11.685625 9.18814453 -11.685625 9.18814453 -10.69140625 8.13671875 C-10.04171875 7.46253906 -9.39203125 6.78835937 -8.72265625 6.09375 C-8.19671875 5.47113281 -7.67078125 4.84851562 -7.12890625 4.20703125 C-3.54872271 0.12219418 -3.54872271 0.12219418 0 0 Z " fill="#3E9FE5" transform="translate(50.72265625,38.90625)"/>
<path d="M0 0 C4.32883834 3.62931573 8.46656422 7.34966784 12.4375 11.375 C13.30246094 12.24898437 14.16742188 13.12296875 15.05859375 14.0234375 C15.69925781 14.67570313 16.33992188 15.32796875 17 16 C15.34925466 20.18256335 12.30490452 23.06255641 9.1875 26.1875 C8.66607422 26.73341797 8.14464844 27.27933594 7.60742188 27.84179688 C5.33365904 30.13259164 3.37658208 31.84936717 0.36328125 33.0546875 C-4.24828548 32.94797356 -6.93417783 29.12145201 -10 26 C-10.53625 25.46246094 -11.0725 24.92492187 -11.625 24.37109375 C-13.65276715 22.16474483 -14.92402676 20.56255034 -15.33007812 17.5559082 C-14.91839471 14.36810221 -14.01764509 13.43357654 -11.71875 11.23046875 C-11.04199219 10.56982422 -10.36523438 9.90917969 -9.66796875 9.22851562 C-8.95253906 8.55498047 -8.23710938 7.88144531 -7.5 7.1875 C-6.78457031 6.49462891 -6.06914063 5.80175781 -5.33203125 5.08789062 C-3.56539579 3.38014301 -1.78817513 1.68513312 0 0 Z " fill="#3EA0E5" transform="translate(85,184)"/>
<path d="M0 0 C4.11137767 1.89215241 7.01344103 4.64609859 10.1875 7.8125 C10.73341797 8.33392578 11.27933594 8.85535156 11.84179688 9.39257812 C14.13223224 11.66598423 15.84969543 13.62562516 17.05859375 16.63671875 C16.98060697 19.78218543 16.0378144 20.75574071 13.875 23 C13.22402344 23.680625 12.57304687 24.36125 11.90234375 25.0625 C11.27457031 25.701875 10.64679688 26.34125 10 27 C9.154375 27.99 8.30875 28.98 7.4375 30 C5 32 5 32 2.3125 32.546875 C-2.66437233 31.72522155 -5.03547686 28.80361588 -8.4375 25.25 C-9.08654297 24.61578125 -9.73558594 23.9815625 -10.40429688 23.328125 C-13.91331917 19.75584355 -13.91331917 19.75584355 -15 18 C-14.77594231 14.56277043 -13.24565875 12.88766798 -10.83984375 10.546875 C-10.21142578 9.928125 -9.58300781 9.309375 -8.93554688 8.671875 C-8.27619141 8.03765625 -7.61683594 7.4034375 -6.9375 6.75 C-6.27427734 6.1003125 -5.61105469 5.450625 -4.92773438 4.78125 C-3.29170683 3.1805324 -1.64909088 1.58723807 0 0 Z " fill="#3E9FE6" transform="translate(162,150)"/>
<path d="M0 0 C4.43626553 2.02300946 7.38251359 4.97867758 10.8125 8.375 C11.72805664 9.24125 11.72805664 9.24125 12.66210938 10.125 C13.23380859 10.68960938 13.80550781 11.25421875 14.39453125 11.8359375 C14.91893799 12.34688965 15.44334473 12.8578418 15.98364258 13.38427734 C17 15 17 15 16.81982422 17.01147461 C15.44022321 20.35776711 12.83712073 22.67500229 10.3125 25.1875 C9.79494141 25.73341797 9.27738281 26.27933594 8.74414062 26.84179688 C6.15320023 29.44564357 4.39479802 30.86741858 0.859375 32.0546875 C-4.20122067 31.95790015 -6.6500259 28.46667401 -10 25 C-10.5465625 24.46246094 -11.093125 23.92492187 -11.65625 23.37109375 C-13.65415685 21.24554285 -14.9786257 19.76012344 -15.0625 16.77734375 C-13.41230725 12.46378843 -10.24451455 9.82641606 -6.9375 6.6875 C-6.27427734 6.04232422 -5.61105469 5.39714844 -4.92773438 4.73242188 C-3.29382329 3.14552982 -1.65131853 1.56873672 0 0 Z " fill="#3E9FE5" transform="translate(16,116)"/>
<path d="M0 0 C3.39658068 1.72978503 5.89148431 4.03353246 8.55078125 6.70703125 C9.30391602 7.41762695 9.30391602 7.41762695 10.07226562 8.14257812 C12.237757 10.29628452 13.64852835 11.7585642 14.08276367 14.83544922 C13.65425023 18.01877872 12.7547987 18.96203536 10.45703125 21.1640625 C9.78027344 21.82470703 9.10351562 22.48535156 8.40625 23.16601562 C7.69082031 23.83955078 6.97539062 24.51308594 6.23828125 25.20703125 C5.52285156 25.89990234 4.80742187 26.59277344 4.0703125 27.30664062 C2.30367704 29.01438824 0.52645638 30.70939813 -1.26171875 32.39453125 C-5.59055709 28.76521552 -9.72828297 25.04486341 -13.69921875 21.01953125 C-14.56417969 20.14554688 -15.42914063 19.2715625 -16.3203125 18.37109375 C-16.96097656 17.71882813 -17.60164062 17.0665625 -18.26171875 16.39453125 C-16.60311274 12.1132545 -13.47754019 9.35080009 -10.26171875 6.20703125 C-9.71515625 5.66111328 -9.16859375 5.11519531 -8.60546875 4.55273438 C-3.14944259 -0.84311503 -3.14944259 -0.84311503 0 0 Z " fill="#3E9FE5" transform="translate(199.26171875,73.60546875)"/>
<path d="M0 0 C3.9345924 0.91024153 6.20198866 3.42654017 8.9296875 6.23046875 C9.75436523 7.01357422 9.75436523 7.01357422 10.59570312 7.8125 C13.11249644 10.34492557 14.46808765 12.05313828 15.41015625 15.54296875 C14.19016557 20.25465688 11.1195377 22.74180901 7.6171875 25.98046875 C6.94945312 26.62113281 6.28171875 27.26179688 5.59375 27.921875 C3.94760527 29.49747067 2.28915315 31.05737594 0.6171875 32.60546875 C-2.42614015 31.24704855 -4.50590401 29.72083851 -6.8359375 27.34765625 C-7.4546875 26.72246094 -8.0734375 26.09726562 -8.7109375 25.453125 C-9.34515625 24.80214844 -9.979375 24.15117187 -10.6328125 23.48046875 C-11.2825 22.82175781 -11.9321875 22.16304687 -12.6015625 21.484375 C-14.19992977 19.86250232 -15.79343147 18.23614065 -17.3828125 16.60546875 C-13.94164849 12.55030599 -10.49586516 8.51447735 -6.8203125 4.66796875 C-5.73556641 3.50974609 -5.73556641 3.50974609 -4.62890625 2.328125 C-2.3828125 0.60546875 -2.3828125 0.60546875 0 0 Z " fill="#3F9FE5" transform="translate(129.3828125,4.39453125)"/>
</svg>
