<?xml version="1.0" encoding="UTF-8"?>
<svg version="1.1" xmlns="http://www.w3.org/2000/svg" width="894" height="228">
<path d="M0 0 C11.88 0 23.76 0 36 0 C36 3.63 36 7.26 36 11 C28.74 11 21.48 11 14 11 C14 15.29 14 19.58 14 24 C20.93 24 27.86 24 35 24 C35 27.63 35 31.26 35 35 C28.07 35 21.14 35 14 35 C14 39.95 14 44.9 14 50 C21.26 50 28.52 50 36 50 C36.495 53.96 36.495 53.96 37 58 C39.27190719 54.43818377 41.54233594 50.87542744 43.8125 47.3125 C44.45509766 46.30509766 45.09769531 45.29769531 45.75976562 44.25976562 C46.38173828 43.28330078 47.00371094 42.30683594 47.64453125 41.30078125 C48.21534424 40.40528564 48.78615723 39.50979004 49.37426758 38.5871582 C49.91075928 37.733396 50.44725098 36.87963379 51 36 C51.58483154 35.16879639 52.16966309 34.33759277 52.7722168 33.48120117 C54.20232869 31.09108579 54.20232869 31.09108579 53.89648438 28.52587891 C52.83691314 25.54049654 51.42334543 23.21673082 49.65625 20.5859375 C48.65271484 19.07386719 48.65271484 19.07386719 47.62890625 17.53125 C46.57509766 15.96890625 46.57509766 15.96890625 45.5 14.375 C44.11167273 12.30142496 42.72612045 10.22598846 41.34375 8.1484375 C40.72693359 7.23239746 40.11011719 6.31635742 39.47460938 5.37255859 C38 3 38 3 37 0 C42.33257384 -1.14412814 47.83246943 -2.22209873 53 0 C57.65065556 4.76261346 60.36034276 11.11460107 63.01708984 17.14233398 C63.86099475 19.17275981 63.86099475 19.17275981 66 20 C66.24621094 19.32453125 66.49242187 18.6490625 66.74609375 17.953125 C68.26230379 14.3822378 70.11877348 11.10197203 72.0625 7.75 C72.42666016 7.11320312 72.79082031 6.47640625 73.16601562 5.8203125 C75.85925752 1.14074248 75.85925752 1.14074248 77 0 C79.53049402 -0.07313567 82.03304837 -0.09247527 84.5625 -0.0625 C85.62887695 -0.05573242 85.62887695 -0.05573242 86.71679688 -0.04882812 C88.47790013 -0.03700864 90.23896036 -0.01907263 92 0 C88.76751516 6.85678602 84.85861926 13.13665066 80.75 19.5 C80.1003125 20.51320313 79.450625 21.52640625 78.78125 22.5703125 C77.19103472 25.0491775 75.59722211 27.52564632 74 30 C78.88691799 37.7523251 83.90954426 45.39461251 89.07617188 52.96289062 C89.8409082 54.09694336 89.8409082 54.09694336 90.62109375 55.25390625 C91.0792749 55.92752197 91.53745605 56.6011377 92.00952148 57.29516602 C93 59 93 59 93 61 C87.64078688 62.22418574 82.18975265 63.2974352 77 61 C72.06182318 55.94907364 69.04593418 49.28615966 66.07470703 42.94946289 C65.15192129 40.83955236 65.15192129 40.83955236 63 40 C62.74202637 40.65484375 62.48405273 41.3096875 62.21826172 41.984375 C61.81623535 42.97953125 61.41420898 43.9746875 61 45 C60.77507874 45.62583984 60.55015747 46.25167969 60.31842041 46.89648438 C58.2408471 52.35503488 55.7804244 57.45253574 51 61 C42.71781532 63.67904381 33.4037419 62.48311189 24.875 62 C16.66625 61.67 8.4575 61.34 0 61 C0 40.87 0 20.74 0 0 Z " fill="#FEFEFE" transform="translate(796,86)"/>
<path d="M0 0 C5.94 0 11.88 0 18 0 C21.375 9 21.375 9 22.3503418 12.12109375 C22.57330933 12.83072266 22.79627686 13.54035156 23.02600098 14.27148438 C23.24816284 14.98626953 23.47032471 15.70105469 23.69921875 16.4375 C23.91243774 17.11748047 24.12565674 17.79746094 24.34533691 18.49804688 C25.1285059 20.99793233 25.90778597 23.49903479 26.6875 26 C28.440625 31.61 30.19375 37.22 32 43 C39.425 21.715 39.425 21.715 47 0 C52.94 0 58.88 0 65 0 C65 20.13 65 40.26 65 61 C61.04 61 57.08 61 53 61 C52.67 47.8 52.34 34.6 52 21 C50.60974609 25.20556641 50.60974609 25.20556641 49.19140625 29.49609375 C48.2952345 32.20019055 47.39803442 34.90394409 46.50073242 37.60766602 C45.87595616 39.49207446 45.25225558 41.37683989 44.62963867 43.26196289 C43.73636518 45.96594511 42.83927617 48.66863487 41.94140625 51.37109375 C41.6622084 52.21900986 41.38301056 53.06692596 41.09535217 53.9405365 C39.11387171 59.88612829 39.11387171 59.88612829 38 61 C35.81360547 61.07258946 33.62499611 61.08373783 31.4375 61.0625 C29.64119141 61.04896484 29.64119141 61.04896484 27.80859375 61.03515625 C26.88175781 61.02355469 25.95492187 61.01195312 25 61 C23.77188803 57.19589526 22.54514566 53.39135167 21.31958008 49.58642578 C20.7013795 47.66806987 20.08214688 45.75004664 19.46289062 43.83203125 C19.06650391 42.60097656 18.67011719 41.36992188 18.26171875 40.1015625 C17.90037842 38.98088379 17.53903809 37.86020508 17.16674805 36.70556641 C15.73268525 32.15101417 14.37208186 27.57360619 13 23 C12.67 35.54 12.34 48.08 12 61 C8.04 61 4.08 61 0 61 C0 40.87 0 20.74 0 0 Z " fill="#FEFEFE" transform="translate(672,86)"/>
<path d="M0 0 C5.61 0 11.22 0 17 0 C20.27643728 3.3305039 21.23393029 4.9124754 23 9 C23.96294839 10.6833468 24.9272732 12.36609338 25.91744995 14.03356934 C26.98983108 15.84393021 28.03297686 17.66825544 29.06835938 19.5 C29.59079224 20.42425781 29.59079224 20.42425781 30.1237793 21.3671875 C30.47480713 21.98851563 30.82583496 22.60984375 31.1875 23.25 C32.25682001 25.13575539 33.32708328 27.02097158 34.39778137 28.90594482 C35.36208658 30.60468199 36.32405973 32.30474236 37.28588867 34.00488281 C38.82261402 36.69004826 40.40824972 39.34708287 42 42 C42 28.14 42 14.28 42 0 C46.29 0 50.58 0 55 0 C55 20.13 55 40.26 55 61 C49.06 61 43.12 61 37 61 C31.15982135 53.21309514 31.15982135 53.21309514 29.5234375 49.37890625 C26.60665197 42.95686092 22.97385577 36.99448432 19.375 30.9375 C17.27125 27.328125 15.1675 23.71875 13 20 C12.67 33.53 12.34 47.06 12 61 C8.04 61 4.08 61 0 61 C0 40.87 0 20.74 0 0 Z " fill="#FEFEFE" transform="translate(388,86)"/>
<path d="M0 0 C6.92536325 4.52812212 10.54124577 11.03554917 12.3125 19 C14.06644312 29.82433469 13.40900811 41.71592283 7 51 C1.71184736 56.93403387 -4.06658463 59.68392198 -11.9375 60.31640625 C-21.11924245 60.67965355 -29.80830611 60.55880168 -37.05078125 54.19921875 C-45.1301113 45.58461217 -46.40332938 36.29475362 -46.21875 24.8046875 C-45.74656965 16.5921222 -43.45553803 9.04695157 -37.2109375 3.375 C-27.16640809 -4.6916491 -11.54635243 -6.00410326 0 0 Z M-28 13 C-32.05276032 19.84776744 -32.7799395 28.04293191 -31.3125 35.8125 C-30.20058199 39.84861798 -28.89382655 42.8835714 -26 46 C-21.70458471 48.3891659 -17.61545138 49.45834648 -12.75 48.5 C-8.84304674 47.22362483 -6.53138924 45.27591549 -4 42 C-0.95783701 34.60274053 -0.28769034 24.48033299 -3.125 16.875 C-5.350227 13.46298527 -7.25955409 10.70431608 -11 9 C-17.53074532 7.89210571 -23.08088496 8.20386284 -28 13 Z " fill="#FEFEFE" transform="translate(559,88)"/>
<path d="M0 0 C6.92536325 4.52812212 10.54124577 11.03554917 12.3125 19 C14.06644312 29.82433469 13.40900811 41.71592283 7 51 C1.71184736 56.93403387 -4.06658463 59.68392198 -11.9375 60.31640625 C-21.11924245 60.67965355 -29.80830611 60.55880168 -37.05078125 54.19921875 C-45.1301113 45.58461217 -46.40332938 36.29475362 -46.21875 24.8046875 C-45.74656965 16.5921222 -43.45553803 9.04695157 -37.2109375 3.375 C-27.16640809 -4.6916491 -11.54635243 -6.00410326 0 0 Z M-28 13 C-32.05276032 19.84776744 -32.7799395 28.04293191 -31.3125 35.8125 C-30.20058199 39.84861798 -28.89382655 42.8835714 -26 46 C-21.70458471 48.3891659 -17.61545138 49.45834648 -12.75 48.5 C-8.84304674 47.22362483 -6.53138924 45.27591549 -4 42 C-0.95783701 34.60274053 -0.28769034 24.48033299 -3.125 16.875 C-5.350227 13.46298527 -7.25955409 10.70431608 -11 9 C-17.53074532 7.89210571 -23.08088496 8.20386284 -28 13 Z " fill="#FEFEFE" transform="translate(496,88)"/>
<path d="M0 0 C30.17857143 0 30.17857143 0 37.8125 4.75 C41.5181208 8.56149568 43.14007403 12.72948682 43.375 18 C43.1526208 22.79041859 41.90385827 26.98952567 38.53515625 30.546875 C34.56794242 34 34.56794242 34 32 34 C37.19247373 41.86161951 37.19247373 41.86161951 42.53515625 49.62109375 C42.94644775 50.20673096 43.35773926 50.79236816 43.78149414 51.39575195 C44.95473505 53.06076204 46.13350899 54.72186909 47.3125 56.3828125 C49 59 49 59 49 61 C43.84616349 61.59696948 39.14009977 61.84516635 34 61 C30.55595338 58.25525218 28.969565 54.88256287 27 51 C25.70235629 48.99032912 24.39006451 46.99003234 23.0625 45 C20 40.26153846 20 40.26153846 20 38 C18.02 38 16.04 38 14 38 C14 45.59 14 53.18 14 61 C9.38 61 4.76 61 0 61 C0 40.87 0 20.74 0 0 Z M14 11 C14 16.28 14 21.56 14 27 C21.8124647 27.19585126 21.8124647 27.19585126 27.875 23.25 C29.4472882 20.1054236 28.98936706 18.32144655 28 15 C26.22861804 12.57661099 25.28956967 12.05489671 22.30078125 11.48828125 C21.31464844 11.43027344 20.32851563 11.37226562 19.3125 11.3125 C16.6828125 11.1578125 16.6828125 11.1578125 14 11 Z " fill="#FEFEFE" transform="translate(579,86)"/>
<path d="M0 0 C5.61 0 11.22 0 17 0 C20.31292772 7.80850158 23.39564976 15.63539032 26.20703125 23.63671875 C26.76241829 25.20580742 26.76241829 25.20580742 27.32902527 26.80659485 C28.10106231 28.98988811 28.87150187 31.17374688 29.64038086 33.3581543 C30.82346835 36.71865504 32.01193189 40.07721908 33.20117188 43.43554688 C33.95343597 45.56499434 34.70540032 47.69454772 35.45703125 49.82421875 C35.81320023 50.83135422 36.1693692 51.83848969 36.53633118 52.87614441 C36.8605455 53.79833267 37.18475983 54.72052094 37.51879883 55.6706543 C37.80572098 56.48495407 38.09264313 57.29925385 38.38825989 58.13822937 C39 60 39 60 39 61 C34.05 61 29.1 61 24 61 C20 51.5 20 51.5 20 47 C12.74 47 5.48 47 -2 47 C-2.474375 48.93875 -2.94875 50.8775 -3.4375 52.875 C-4.875 58.75 -4.875 58.75 -6 61 C-10.95 61 -15.9 61 -21 61 C-18.86721284 53.7170686 -16.51983191 46.54070176 -14.0234375 39.375 C-13.65272125 38.30628662 -13.282005 37.23757324 -12.90005493 36.13647461 C-12.12285257 33.89743699 -11.3446304 31.65875312 -10.56542969 29.42041016 C-9.36908794 25.98301313 -8.17650052 22.54433 -6.984375 19.10546875 C-6.22678259 16.92440271 -5.46897775 14.74341043 -4.7109375 12.5625 C-4.3536557 11.53237793 -3.9963739 10.50225586 -3.62826538 9.44091797 C-3.2976712 8.4923291 -2.96707703 7.54374023 -2.62646484 6.56640625 C-2.19036392 5.31259155 -2.19036392 5.31259155 -1.74545288 4.03344727 C-1 2 -1 2 0 0 Z M8 13 C6.99553896 16.2903223 5.99719244 19.58246822 5 22.875 C4.57074219 24.28072266 4.57074219 24.28072266 4.1328125 25.71484375 C3.72675781 27.05869141 3.72675781 27.05869141 3.3125 28.4296875 C3.06113281 29.25710449 2.80976563 30.08452148 2.55078125 30.93701172 C1.91401757 32.96617846 1.91401757 32.96617846 2 35 C6.62 35 11.24 35 16 35 C15.05117167 31.51797907 14.09149034 28.03961757 13.125 24.5625 C12.85558594 23.56927734 12.58617187 22.57605469 12.30859375 21.55273438 C12.04433594 20.60849609 11.78007812 19.66425781 11.5078125 18.69140625 C11.26691895 17.81685791 11.02602539 16.94230957 10.77783203 16.04125977 C10.19293381 13.81456717 10.19293381 13.81456717 8 13 Z " fill="#FEFEFE" transform="translate(286,86)"/>
<path d="M0 0 C2.58175659 1.86022949 2.58175659 1.86022949 5.17919922 4.49804688 C5.65800034 4.97597183 6.13680145 5.45389679 6.63011169 5.94630432 C8.20295278 7.52331242 9.75349557 9.12046663 11.3046875 10.71875 C12.39338836 11.81864611 13.48342507 12.91722145 14.57473755 14.01452637 C17.43881401 16.90147488 20.2844142 19.80598559 23.12652588 22.71453857 C26.03172905 25.68119855 28.95406389 28.63087506 31.875 31.58203125 C37.60022883 37.37154408 43.30604848 43.17972416 49 49 C46.8732066 53.40616929 44.04802793 56.35554337 40.625 59.8125 C40.0475 60.42287109 39.47 61.03324219 38.875 61.66210938 C38.31039062 62.23380859 37.74578125 62.80550781 37.1640625 63.39453125 C36.65311035 63.91893799 36.1421582 64.44334473 35.61572266 64.98364258 C34 66 34 66 32.20278931 65.84104919 C29.15354336 64.67681354 27.45728297 62.85408105 25.13964844 60.55957031 C24.67089294 60.09928436 24.20213745 59.63899841 23.71917725 59.1647644 C22.17468405 57.64363717 20.64161158 56.1115911 19.109375 54.578125 C18.03921379 53.51506476 16.96875458 52.45230445 15.89801025 51.38983154 C13.65692728 49.16219186 11.42186901 46.92870414 9.19042969 44.69140625 C6.32992798 41.82500366 3.45159217 38.97728152 0.56801987 36.13411331 C-1.64708664 33.94485103 -3.85062525 31.74422566 -6.05101776 29.54018402 C-7.10763111 28.48526447 -8.16823588 27.43432714 -9.23285675 26.38748932 C-10.71985159 24.92262283 -12.1901144 23.44275092 -13.65722656 21.95800781 C-14.49787659 21.11941223 -15.33852661 20.28081665 -16.20465088 19.41680908 C-18 17 -18 17 -18.42230225 14.38470459 C-17.7397714 10.53051141 -15.0760924 8.31515845 -12.375 5.6875 C-11.85292969 5.13771484 -11.33085937 4.58792969 -10.79296875 4.02148438 C-10.27089844 3.50263672 -9.74882812 2.98378906 -9.2109375 2.44921875 C-8.73962402 1.97830811 -8.26831055 1.50739746 -7.78271484 1.0222168 C-5.05037685 -0.54451823 -3.10758892 -0.33377206 0 0 Z " fill="#3E9FE5" transform="translate(22,77)"/>
<path d="M0 0 C2.66404724 1.94252014 2.66404724 1.94252014 5.20092773 4.51977539 C5.67012131 4.9880928 6.13931488 5.45641022 6.62272644 5.93891907 C8.1576862 7.4780323 9.670335 9.03722708 11.18359375 10.59765625 C12.24844255 11.67370516 13.31463096 12.7484299 14.38209534 13.82188416 C17.17877856 16.64140136 19.95696961 19.47846959 22.73162842 22.31964111 C25.56985323 25.21940531 28.42528594 28.10211469 31.27929688 30.98632812 C36.86979954 36.6410475 42.44087226 42.31443396 48 48 C46.55695686 51.01409306 45.13408132 53.10472016 42.7421875 55.453125 C42.11699219 56.071875 41.49179688 56.690625 40.84765625 57.328125 C40.19667969 57.96234375 39.54570312 58.5965625 38.875 59.25 C38.21628906 59.8996875 37.55757812 60.549375 36.87890625 61.21875 C35.25702872 62.81712206 33.62981741 64.40973706 32 66 C22.68396919 58.2593397 14.25525427 49.55576614 5.6730957 41.02319336 C3.59368221 38.95720441 1.50720272 36.89876376 -0.58569336 34.84643555 C-3.12709918 32.35425741 -5.65609284 29.85010923 -8.17656136 27.33676338 C-9.59995876 25.92333078 -11.03543386 24.52209471 -12.47105408 23.12107849 C-13.32937332 22.25990921 -14.18769257 21.39873993 -15.07202148 20.51147461 C-15.83256332 19.75901962 -16.59310516 19.00656464 -17.37669373 18.23130798 C-19 16 -19 16 -19.3941803 13.41481018 C-18.75981346 9.52857967 -16.13076303 7.28937224 -13.4375 4.625 C-12.92380859 4.06683594 -12.41011719 3.50867188 -11.88085938 2.93359375 C-11.10258789 2.15048828 -11.10258789 2.15048828 -10.30859375 1.3515625 C-9.84251709 0.87541504 -9.37644043 0.39926758 -8.89624023 -0.09130859 C-5.75681438 -1.59574313 -3.32146414 -0.75208509 0 0 Z " fill="#3E9FE5" transform="translate(92,9)"/>
<path d="M0 0 C1.27629154 0.94838654 2.55136491 1.89841255 3.82592773 2.84912109 C4.53611557 3.3779892 5.24630341 3.9068573 5.97801208 4.45175171 C8.48698096 6.37288424 10.79560154 8.42420321 13.0625 10.625 C13.83722656 11.35976562 14.61195312 12.09453125 15.41015625 12.8515625 C17 15 17 15 16.87115479 16.8372345 C15.67831312 19.79863337 13.90067963 21.48850975 11.65136719 23.75268555 C10.72660583 24.69013107 9.80184448 25.6275766 8.84906006 26.59342957 C7.83212138 27.60831677 6.8147148 28.6227353 5.796875 29.63671875 C4.75616325 30.68199201 3.71582424 31.7276365 2.67584229 32.77363586 C0.49511964 34.96329091 -1.6911908 37.14717542 -3.88134766 39.32739258 C-6.68542758 42.11998329 -9.47334245 44.92810809 -12.25703812 47.74100018 C-14.4015928 49.90391355 -16.55539546 52.05742768 -18.71199799 54.20832253 C-19.74369723 55.23986852 -20.77230098 56.27452024 -21.7977066 57.31232262 C-23.23344899 58.76296428 -24.6833382 60.19956291 -26.13378906 61.63549805 C-26.95461975 62.45616257 -27.77545044 63.27682709 -28.62115479 64.12236023 C-31.19325216 66.15253533 -32.75211943 66.78604513 -36 67 C-38.02734375 65.8125 -38.02734375 65.8125 -39.9375 64 C-40.61683594 63.35933594 -41.29617187 62.71867187 -41.99609375 62.05859375 C-44.82465794 59.15283678 -47.43545691 56.14156529 -50 53 C-48.59668034 48.675715 -46.57762229 46.21182945 -43.36669922 43.02612305 C-42.89823578 42.55722153 -42.42977234 42.08832001 -41.94711304 41.60520935 C-40.40664566 40.06682147 -38.85584912 38.53931652 -37.3046875 37.01171875 C-36.23072001 35.94335019 -35.15741571 34.87431459 -34.08474731 33.80464172 C-31.26698121 30.99830094 -28.44032125 28.20108839 -25.61169434 25.40570068 C-22.72396979 22.54872684 -19.84477488 19.68318531 -16.96484375 16.81835938 C-11.3181946 11.20383356 -5.66211796 5.59892532 0 0 Z " fill="#3E9FE5" transform="translate(88,119)"/>
<path d="M0 0 C3.74114131 1.30386142 5.90683159 3.77501115 8.63485718 6.55938721 C9.18464233 7.08532471 9.73442749 7.61126221 10.3008728 8.15313721 C14.18363729 12.05037163 14.18363729 12.05037163 14.75656128 15.18516541 C14.14555378 18.87794303 12.47390834 20.25925889 9.8243103 22.87506104 C9.34638535 23.35371613 8.86846039 23.83237122 8.37605286 24.32553101 C6.79680138 25.90130504 5.20059618 27.45864055 3.60360718 29.01641846 C2.50392849 30.10676961 1.40535015 31.19823156 0.30783081 32.29075623 C-2.58127071 35.16078348 -5.48507162 38.01547904 -8.3921814 40.86724854 C-11.35702979 43.7809142 -14.30774269 46.70881772 -17.25967407 49.63555908 C-23.05191613 55.37420588 -28.85976301 61.09673432 -34.67764282 66.80938721 C-37.69173588 65.36634407 -39.78236298 63.94346853 -42.13076782 61.55157471 C-42.74951782 60.92637939 -43.36826782 60.30118408 -44.00576782 59.65704346 C-44.63998657 59.00606689 -45.27420532 58.35509033 -45.92764282 57.68438721 C-46.57733032 57.02567627 -47.22701782 56.36696533 -47.89639282 55.68829346 C-49.49476488 54.06641593 -51.08737988 52.43920462 -52.67764282 50.80938721 C-44.92518774 41.48634008 -36.23409449 33.0277701 -27.70083618 24.42755127 C-25.63364194 22.34241989 -23.57533768 20.24906181 -21.52407837 18.14825439 C-19.0340518 15.5981942 -16.52975644 13.06302558 -14.0144062 10.53794861 C-12.59925455 9.11007836 -11.19886002 7.66763124 -9.79872131 6.22503662 C-8.93755203 5.36664185 -8.07638275 4.50824707 -7.18911743 3.62384033 C-6.43666245 2.86107788 -5.68420746 2.09831543 -4.90895081 1.31243896 C-2.67764282 -0.19061279 -2.67764282 -0.19061279 0 0 Z " fill="#3E9FE6" transform="translate(167.67764282226563,42.19061279296875)"/>
<path d="M0 0 C5.98971385 4.9778484 11.52675435 10.33377897 17.0546875 15.81640625 C17.52142002 16.27906324 17.98815254 16.74172024 18.46902847 17.21839714 C20.93051605 19.65919433 23.38883732 22.1031311 25.84472656 24.54956055 C28.37497169 27.06866373 30.91669858 29.5758539 33.4610424 32.08070469 C35.42536586 34.01890212 37.38076872 35.96591538 39.33386612 37.91541862 C40.71956035 39.29389693 42.11482434 40.66273382 43.51022339 42.03138733 C44.34844635 42.87253586 45.18666931 43.71368439 46.05029297 44.58032227 C46.7908493 45.31501236 47.53140564 46.04970245 48.29440308 46.80665588 C50.21163195 49.27215205 50.74738621 50.9070382 51 54 C49.99951172 55.76098633 49.99951172 55.76098633 48.4296875 57.33203125 C47.8625 57.90244141 47.2953125 58.47285156 46.7109375 59.06054688 C46.10507813 59.63869141 45.49921875 60.21683594 44.875 60.8125 C44.29234375 61.40998047 43.7096875 62.00746094 43.109375 62.62304688 C38.76689779 66.88276387 38.76689779 66.88276387 35.70555115 67.35075378 C31.9105473 66.85876088 30.60512297 65.20725634 27.93432617 62.50195312 C27.45567108 62.02402817 26.97701599 61.54610321 26.4838562 61.05369568 C24.90808217 59.4744442 23.35074666 57.878239 21.79296875 56.28125 C20.7026176 55.18157131 19.61115565 54.08299297 18.51863098 52.98547363 C15.64860372 50.09637211 12.79390816 47.1925712 9.94213867 44.28546143 C7.02847301 41.32061303 4.10056949 38.36990013 1.17382812 35.41796875 C-4.56481867 29.62572669 -10.28734711 23.81787982 -16 18 C-14.55695686 14.98590694 -13.13408132 12.89527984 -10.7421875 10.546875 C-10.11699219 9.928125 -9.49179688 9.309375 -8.84765625 8.671875 C-8.19667969 8.03765625 -7.54570313 7.4034375 -6.875 6.75 C-6.21628906 6.1003125 -5.55757812 5.450625 -4.87890625 4.78125 C-3.25702872 3.18287794 -1.62981741 1.59026294 0 0 Z " fill="#3E9FE5" transform="translate(97,153)"/>
<path d="M0 0 C2.96502465 1.12030403 4.59498509 2.82850147 6.85121155 5.0526886 C7.76863632 5.95097382 8.6860611 6.84925903 9.63128662 7.77476501 C10.6242276 8.76311941 11.61654768 9.75209791 12.60829163 10.74165344 C13.63129021 11.75500853 14.65451233 12.76813799 15.677948 13.78105164 C17.82083362 15.90598132 19.95743309 18.03701508 22.09046936 20.17182922 C24.81917442 22.90083892 27.56791439 25.60864083 30.32247448 28.31151772 C32.44235706 30.39797311 34.54839121 32.49799547 36.65082741 34.60201645 C37.65828526 35.60594332 38.67059082 36.60503048 39.68784142 37.59903336 C41.11200702 38.9936696 42.51528522 40.4095382 43.9176178 41.8261261 C44.72051743 42.62475067 45.52341705 43.42337524 46.35064697 44.24620056 C48.64559171 47.46641357 48.98181521 49.91467242 49.19032288 53.82759094 C48.28163147 55.72383118 48.28163147 55.72383118 46.83876038 57.13618469 C46.31669006 57.65503235 45.79461975 58.17388 45.25672913 58.70845032 C44.41948303 59.47898743 44.41948303 59.47898743 43.56532288 60.26509094 C43.03036194 60.80585266 42.495401 61.34661438 41.94422913 61.90376282 C39.68996953 64.07300775 37.93997733 65.69221898 34.81015015 66.25740051 C31.11872582 65.65178444 29.73860501 63.97727207 27.12464905 61.32954407 C26.64599396 60.85161911 26.16733887 60.37369415 25.67417908 59.88128662 C24.09840505 58.30203514 22.54106954 56.70582994 20.98329163 55.10884094 C19.89294047 54.00916225 18.80147853 52.91058392 17.70895386 51.81306458 C14.8389266 48.92396306 11.98423104 46.02016214 9.13246155 43.11305237 C6.21879588 40.14820397 3.29089237 37.19749107 0.364151 34.24555969 C-5.3744958 28.45331764 -11.09702423 22.64547076 -16.80967712 16.82759094 C-14.68288372 12.42142165 -11.85770506 9.47204757 -8.43467712 6.01509094 C-7.56842712 5.0995343 -7.56842712 5.0995343 -6.68467712 4.16548157 C-6.12006775 3.59378235 -5.55545837 3.02208313 -4.97373962 2.43305969 C-4.46278748 1.90865295 -3.95183533 1.38424622 -3.42539978 0.84394836 C-1.80967712 -0.17240906 -1.80967712 -0.17240906 0 0 Z " fill="#3E9FE6" transform="translate(166.80967712402344,85.17240905761719)"/>
<path d="M0 0 C32.40681818 0 32.40681818 0 38.05859375 4.71875 C38.74115234 5.60046875 38.74115234 5.60046875 39.4375 6.5 C39.91058594 7.0878125 40.38367188 7.675625 40.87109375 8.28125 C44.26238081 13.44445521 43.38650068 20.09310278 43 26 C41.30400117 31.48705505 37.68353309 34.85157066 33 38 C26.82452475 40.6639305 20.61423804 40.14863456 14 40 C14 46.93 14 53.86 14 61 C9.38 61 4.76 61 0 61 C0 40.87 0 20.74 0 0 Z M14 11 C14 16.61 14 22.22 14 28 C20.9791632 28.6455356 20.9791632 28.6455356 27.125 25.9375 C29.4780487 22.25105703 29.70341469 20.29864534 29 16 C26.78136971 13.09282927 25.48055071 12.16018357 22 11 C19.36 11 16.72 11 14 11 Z " fill="#FEFEFE" transform="translate(747,86)"/>
<path d="M0 0 C1.27629154 0.94838654 2.55136491 1.89841255 3.82592773 2.84912109 C4.53611557 3.3779892 5.24630341 3.9068573 5.97801208 4.45175171 C8.48698096 6.37288424 10.79560154 8.42420321 13.0625 10.625 C13.83722656 11.35976562 14.61195313 12.09453125 15.41015625 12.8515625 C17 15 17 15 16.82723999 16.88313293 C15.78282521 19.55573977 14.38390764 20.99028143 12.35400391 23.01831055 C11.19742783 24.18422981 11.19742783 24.18422981 10.01748657 25.373703 C9.17898163 26.2029982 8.34047668 27.0322934 7.4765625 27.88671875 C6.61944672 28.74433304 5.76233093 29.60194733 4.87924194 30.48554993 C3.06533924 32.29711169 1.24774146 34.10497998 -0.57324219 35.90942383 C-3.36567545 38.67825427 -6.14454603 41.4601685 -8.921875 44.24414062 C-10.68410466 46.00079405 -12.44709995 47.75667981 -14.2109375 49.51171875 C-15.46262222 50.76477058 -15.46262222 50.76477058 -16.73959351 52.0431366 C-17.51694855 52.81095963 -18.29430359 53.57878265 -19.09521484 54.36987305 C-19.77836761 55.04841843 -20.46152039 55.72696381 -21.16537476 56.42607117 C-23 58 -23 58 -26 59 C-31.28 53.72 -36.56 48.44 -42 43 C-35.25 35.125 -35.25 35.125 -32.01416016 31.90063477 C-31.29386627 31.18041641 -30.57357239 30.46019806 -29.83145142 29.71815491 C-29.07496307 28.96682785 -28.31847473 28.21550079 -27.5390625 27.44140625 C-26.74849457 26.65225327 -25.95792664 25.86310028 -25.1434021 25.05003357 C-22.63962374 22.55181339 -20.13237525 20.05710956 -17.625 17.5625 C-15.91773752 15.86025792 -14.21070391 14.15778627 -12.50390625 12.45507812 C-8.33858102 8.30072637 -4.17040781 4.14924919 0 0 Z " fill="#3EA1E6" transform="translate(157,119)"/>
<path d="M0 0 C1.10714734 0.94643221 2.21392771 1.89329372 3.32055664 2.84033203 C3.93693497 3.36756866 4.55331329 3.8948053 5.18836975 4.4380188 C7.63657975 6.54885681 10.03972945 8.70715265 12.4375 10.875 C13.30246094 11.65617187 14.16742188 12.43734375 15.05859375 13.2421875 C15.69925781 13.82226562 16.33992188 14.40234375 17 15 C16.43045162 18.76681214 14.88765569 20.47805894 12.21459961 23.12597656 C11.41384506 23.92650452 10.61309052 24.72703247 9.78807068 25.55181885 C8.91828079 26.40612488 8.04849091 27.26043091 7.15234375 28.140625 C6.2659169 29.02280701 5.37949005 29.90498901 4.46620178 30.81390381 C2.11236944 33.15378577 -0.24773754 35.48695398 -2.61114502 37.81713867 C-5.02288417 40.19814663 -7.42611479 42.58770853 -9.83007812 44.9765625 C-14.54558059 49.6589678 -19.26954156 54.33270728 -24 59 C-28.40616929 56.8732066 -31.35554337 54.04802793 -34.8125 50.625 C-35.42287109 50.0475 -36.03324219 49.47 -36.66210938 48.875 C-37.23380859 48.31039062 -37.80550781 47.74578125 -38.39453125 47.1640625 C-38.91893799 46.65311035 -39.44334473 46.1421582 -39.98364258 45.61572266 C-41 44 -41 44 -40.80010986 42.15689087 C-39.77075651 39.38201838 -38.31644247 37.95609975 -36.21459961 35.87402344 C-35.01346779 34.67323151 -35.01346779 34.67323151 -33.78807068 33.44818115 C-32.91828079 32.59387512 -32.04849091 31.73956909 -31.15234375 30.859375 C-30.2659169 29.97719299 -29.37949005 29.09501099 -28.46620178 28.18609619 C-26.11236944 25.84621423 -23.75226246 23.51304602 -21.38885498 21.18286133 C-18.97711583 18.80185337 -16.57388521 16.41229147 -14.16992188 14.0234375 C-9.45441941 9.3410322 -4.73045844 4.66729272 0 0 Z " fill="#3EA0E6" transform="translate(88,50)"/>
<path d="M0 0 C2.77487249 1.02935335 4.20079112 2.4836674 6.28286743 4.58551025 C7.08339539 5.3862648 7.88392334 6.18701935 8.70870972 7.01203918 C9.99016876 8.31672401 9.99016876 8.31672401 11.29751587 9.64776611 C12.17969788 10.53419296 13.06187988 11.42061981 13.97079468 12.33390808 C16.31067664 14.68774043 18.64384485 17.0478474 20.97402954 19.41125488 C23.3550375 21.82299403 25.7445994 24.22622465 28.13345337 26.63018799 C32.81585867 31.34569046 37.48959815 36.06965143 42.15689087 40.80010986 C41.21045866 41.9072572 40.26359715 43.01403757 39.31655884 44.1206665 C38.7893222 44.73704483 38.26208557 45.35342316 37.71887207 45.98847961 C35.60803406 48.43668961 33.44973822 50.83983931 31.28189087 53.23760986 C30.50071899 54.1025708 29.71954712 54.96753174 28.91470337 55.85870361 C28.33462524 56.49936768 27.75454712 57.14003174 27.15689087 57.80010986 C23.39007873 57.23056148 21.67883193 55.68776556 19.03091431 53.01470947 C17.83012238 51.81357765 17.83012238 51.81357765 16.60507202 50.58818054 C15.75076599 49.71839066 14.89645996 48.84860077 14.01626587 47.95245361 C13.13408386 47.06602676 12.25190186 46.17959991 11.34298706 45.26631165 C9.0031051 42.9124793 6.66993688 40.55237232 4.3397522 38.18896484 C1.95874424 35.7772257 -0.43081766 33.37399508 -2.81967163 30.97003174 C-7.50207693 26.25452927 -12.17581641 21.5305683 -16.84310913 16.80010986 C-14.71631573 12.39394057 -11.89113706 9.44456649 -8.46810913 5.98760986 C-7.60185913 5.07205322 -7.60185913 5.07205322 -6.71810913 4.13800049 C-6.15349976 3.56630127 -5.58889038 2.99460205 -5.00717163 2.40557861 C-4.49621948 1.88117188 -3.98526733 1.35676514 -3.45883179 0.81646729 C-1.84310913 -0.19989014 -1.84310913 -0.19989014 0 0 Z " fill="#3E9FE5" transform="translate(97.84310913085938,85.19989013671875)"/>
<path d="M0 0 C4.62 0 9.24 0 14 0 C14 16.5 14 33 14 50 C21.92 50 29.84 50 38 50 C38 53.63 38 57.26 38 61 C25.46 61 12.92 61 0 61 C0 40.87 0 20.74 0 0 Z " fill="#FEFEFE" transform="translate(327,86)"/>
<path d="M0 0 C4.62 0 9.24 0 14 0 C14 20.13 14 40.26 14 61 C9.38 61 4.76 61 0 61 C0 40.87 0 20.74 0 0 Z " fill="#FEFEFE" transform="translate(648,86)"/>
<path d="M0 0 C4.53295072 1.77818117 7.22289621 4.78100063 10.51171875 8.29296875 C11.15238281 8.95619141 11.79304688 9.61941406 12.453125 10.30273438 C14.02625795 11.93456631 15.58651109 13.57689271 17.13671875 15.23046875 C15.77829855 18.2737964 14.25208851 20.35356026 11.87890625 22.68359375 C11.25371094 23.30234375 10.62851563 23.92109375 9.984375 24.55859375 C9.33339844 25.1928125 8.68242188 25.82703125 8.01171875 26.48046875 C7.35300781 27.13015625 6.69429687 27.77984375 6.015625 28.44921875 C4.39375232 30.04758602 2.76739065 31.64108772 1.13671875 33.23046875 C-2.94537705 29.78523852 -6.94222506 26.30618708 -10.73828125 22.54296875 C-11.49882813 21.79660156 -12.259375 21.05023438 -13.04296875 20.28125 C-14.86328125 18.23046875 -14.86328125 18.23046875 -15.86328125 15.23046875 C-13.91021491 11.19010472 -11.13374001 8.08523507 -8.05078125 4.85546875 C-7.21933594 3.96085937 -6.38789062 3.06625 -5.53125 2.14453125 C-2.86328125 0.23046875 -2.86328125 0.23046875 0 0 Z " fill="#3E9FE5" transform="translate(53.86328125,41.76953125)"/>
<path d="M0 0 C4.43626553 2.02300946 7.38251359 4.97867758 10.8125 8.375 C11.72805664 9.24125 11.72805664 9.24125 12.66210938 10.125 C13.23380859 10.68960938 13.80550781 11.25421875 14.39453125 11.8359375 C14.91893799 12.34688965 15.44334473 12.8578418 15.98364258 13.38427734 C17 15 17 15 16.83349609 16.99560547 C15.3317544 20.60699951 12.53866266 23.01482027 9.8125 25.75 C9.24724609 26.35199219 8.68199219 26.95398438 8.09960938 27.57421875 C5.42393915 30.27747321 3.71763589 31.82313748 -0.02734375 32.74609375 C-4.26413003 31.68272163 -6.42004669 29.4243212 -9.375 26.3125 C-9.92027344 25.78205078 -10.46554688 25.25160156 -11.02734375 24.70507812 C-14.88995847 20.76017712 -14.88995847 20.76017712 -15.35595703 17.54101562 C-14.91275367 14.37718808 -14.00510772 13.42156156 -11.71875 11.23046875 C-11.04199219 10.56982422 -10.36523438 9.90917969 -9.66796875 9.22851562 C-8.95253906 8.55498047 -8.23710937 7.88144531 -7.5 7.1875 C-6.78457031 6.49462891 -6.06914062 5.80175781 -5.33203125 5.08789062 C-3.56539579 3.38014301 -1.78817513 1.68513312 0 0 Z " fill="#3E9FE6" transform="translate(19,119)"/>
<path d="M0 0 C4.43626553 2.02300946 7.38251359 4.97867758 10.8125 8.375 C11.72805664 9.24125 11.72805664 9.24125 12.66210938 10.125 C13.23380859 10.68960938 13.80550781 11.25421875 14.39453125 11.8359375 C14.91893799 12.34688965 15.44334473 12.8578418 15.98364258 13.38427734 C17 15 17 15 16.81762695 17.01147461 C15.44559277 20.3483568 12.88117377 22.6722239 10.375 25.1875 C9.86582031 25.73341797 9.35664062 26.27933594 8.83203125 26.84179688 C6.11385508 29.59062917 4.22051285 30.92337487 0.50390625 32.21484375 C-4.40382663 31.91392367 -6.2118719 29.87988574 -9.4375 26.375 C-9.97826172 25.84003906 -10.51902344 25.30507812 -11.07617188 24.75390625 C-13.29167918 22.45157122 -14.89073053 20.76021087 -15.35375977 17.53881836 C-14.91299791 14.3756144 -14.0044027 13.42088592 -11.71875 11.23046875 C-11.04199219 10.56982422 -10.36523438 9.90917969 -9.66796875 9.22851562 C-8.95253906 8.55498047 -8.23710938 7.88144531 -7.5 7.1875 C-6.78457031 6.49462891 -6.06914063 5.80175781 -5.33203125 5.08789062 C-3.56539579 3.38014301 -1.78817513 1.68513312 0 0 Z " fill="#3E9FE6" transform="translate(88,188)"/>
<path d="M0 0 C4.20863707 1.01651912 6.56431422 3.78970865 9.52734375 6.828125 C10.13320312 7.40626953 10.7390625 7.98441406 11.36328125 8.58007812 C15.53929487 12.7798191 15.53929487 12.7798191 15.9765625 16.109375 C13.89718245 20.08411917 10.82104464 22.88616892 7.58984375 25.953125 C6.92662109 26.59830078 6.26339844 27.24347656 5.58007812 27.90820312 C3.94616704 29.49509518 2.30366228 31.07188828 0.65234375 32.640625 C-2.3909839 31.2822048 -4.47074776 29.75599476 -6.80078125 27.3828125 C-7.41953125 26.75761719 -8.03828125 26.13242187 -8.67578125 25.48828125 C-9.31 24.83730469 -9.94421875 24.18632812 -10.59765625 23.515625 C-11.24734375 22.85691406 -11.89703125 22.19820312 -12.56640625 21.51953125 C-14.16477352 19.89765857 -15.75827522 18.2712969 -17.34765625 16.640625 C-13.90649224 12.58546224 -10.46070891 8.5496336 -6.78515625 4.703125 C-5.70041016 3.54490234 -5.70041016 3.54490234 -4.59375 2.36328125 C-2.34765625 0.640625 -2.34765625 0.640625 0 0 Z " fill="#3E9FE6" transform="translate(132.34765625,7.359375)"/>
<path d="M0 0 C8.07846506 6.87285223 8.07846506 6.87285223 11.375 10 C12.04273438 10.61875 12.71046875 11.2375 13.3984375 11.875 C15.58043234 14.77013462 16.12532962 16.35201286 16 20 C14.31867823 22.69425867 12.17078075 24.76139292 9.875 26.9375 C9.29234375 27.53884766 8.7096875 28.14019531 8.109375 28.75976562 C3.89536803 32.88401236 3.89536803 32.88401236 0.52734375 33.3203125 C-3.44667047 31.24424325 -6.24714922 28.16700963 -9.3125 24.9375 C-9.95767578 24.27427734 -10.60285156 23.61105469 -11.26757812 22.92773438 C-12.85447018 21.29382329 -14.43126328 19.65131853 -16 18 C-14.6415798 14.95667235 -13.11536976 12.87690849 -10.7421875 10.546875 C-10.11699219 9.928125 -9.49179688 9.309375 -8.84765625 8.671875 C-8.19667969 8.03765625 -7.54570312 7.4034375 -6.875 6.75 C-6.21628906 6.1003125 -5.55757812 5.450625 -4.87890625 4.78125 C-3.25703357 3.18288273 -1.6306719 1.58938103 0 0 Z " fill="#3E9FE6" transform="translate(166,153)"/>
<path d="M0 0 C3.94533521 0.91861536 6.20600193 3.47390563 8.9296875 6.296875 C9.75436523 7.09254883 9.75436523 7.09254883 10.59570312 7.90429688 C14.50893429 11.86613961 14.50893429 11.86613961 14.9753418 15.06835938 C14.52955367 18.23111518 13.62187797 19.1882133 11.3359375 21.37890625 C10.65917969 22.03955078 9.98242188 22.70019531 9.28515625 23.38085938 C8.56972656 24.05439453 7.85429687 24.72792969 7.1171875 25.421875 C6.40175781 26.11474609 5.68632812 26.80761719 4.94921875 27.52148438 C3.18258329 29.22923199 1.40536263 30.92424188 -0.3828125 32.609375 C-4.71165084 28.98005927 -8.84937672 25.25970716 -12.8203125 21.234375 C-13.68527344 20.36039063 -14.55023438 19.48640625 -15.44140625 18.5859375 C-16.08207031 17.93367188 -16.72273437 17.28140625 -17.3828125 16.609375 C-13.98425393 12.51367621 -10.47862746 8.5381878 -6.8203125 4.671875 C-5.73556641 3.51365234 -5.73556641 3.51365234 -4.62890625 2.33203125 C-2.3828125 0.609375 -2.3828125 0.609375 0 0 Z " fill="#3E9FE5" transform="translate(201.3828125,76.390625)"/>
</svg>
