<?xml version="1.0" encoding="UTF-8"?>
<svg version="1.1" xmlns="http://www.w3.org/2000/svg" width="1008" height="1012">
<path d="M0 0 C3.00329196 1.16868239 5.03309608 2.78490933 7.29034424 5.04983521 C8.23256332 5.9879303 8.23256332 5.9879303 9.19381714 6.94497681 C9.87139069 7.62974091 10.54896423 8.314505 11.24707031 9.02001953 C12.3305928 10.10310394 12.3305928 10.10310394 13.43600464 11.20806885 C15.82148279 13.59493989 18.19979939 15.9888162 20.578125 18.3828125 C22.23107002 20.03948779 23.88445727 21.69572195 25.53826904 23.35153198 C29.88936088 27.71025917 34.23441313 32.07495924 38.57824707 36.44091797 C43.01208371 40.89521505 47.45158909 45.34385418 51.890625 49.79296875 C60.5993166 58.52310855 69.30164008 67.25956694 78 76 C76.55238787 79.31637193 74.74694657 81.50433095 72.19707966 84.05739594 C71.39971687 84.86059092 70.60235407 85.66378591 69.78082877 86.49132013 C68.90040214 87.36796745 68.0199755 88.24461476 67.11286926 89.14782715 C66.17112996 90.09258667 65.22982558 91.03777988 64.28891963 91.98336935 C61.70049798 94.58209669 59.1058509 97.17452969 56.51013744 99.76597095 C53.71230021 102.56134557 50.9202046 105.36244502 48.12734985 108.16279602 C42.6538442 113.64906441 37.17485738 119.12982716 31.6937978 124.60854781 C27.23864736 129.06191642 22.78526427 133.51704495 18.3331356 137.97343445 C17.69986992 138.60729532 17.06660424 139.24115619 16.41414868 139.89422497 C15.12771768 141.18186772 13.84128787 142.46951166 12.55485924 143.75715679 C0.48423347 155.83866452 -11.5929122 167.91363839 -23.67202685 179.98665804 C-34.72200689 191.03147036 -45.76375652 202.084469 -56.80163988 213.14136928 C-68.13344617 224.49254915 -79.47079805 235.83816256 -90.81417447 247.17778063 C-97.18325056 253.54494369 -103.5501022 259.91429367 -109.91115379 266.28947449 C-115.32749273 271.71772219 -120.7490479 277.14069304 -126.17739894 282.55692947 C-128.94656868 285.32020654 -131.71327899 288.08583215 -134.47350883 290.85804176 C-137.00182719 293.39720543 -139.53700334 295.92930764 -142.07775608 298.45602733 C-143.42754465 299.80191223 -144.76997846 301.15516089 -146.11211175 302.50867987 C-152.36769548 308.70863546 -158.08742549 313.75381565 -167.2495575 314.17436218 C-175.96856964 313.62162713 -182.62147713 307.09082238 -188.38671875 301.13671875 C-189.13282913 300.3859053 -189.87893951 299.63509186 -190.6476593 298.86152649 C-193.00630459 296.48172743 -195.34671429 294.08485329 -197.6875 291.6875 C-199.26776943 290.09069683 -200.84914126 288.49498386 -202.43164062 286.90039062 C-208.59989011 280.66073747 -214.72318108 274.44143107 -220.43334961 267.77502441 C-223.38935814 264.42584879 -226.65305939 261.37804852 -229.90039062 258.31445312 C-234.36717126 253.9734973 -236.27452594 250.40684449 -236.375 244.1875 C-236.40335938 243.39730469 -236.43171875 242.60710937 -236.4609375 241.79296875 C-235.21843964 234.26427408 -230.58937476 229.00893378 -225.30877686 223.82102966 C-224.63721754 223.14534709 -223.96565823 222.46966451 -223.27374864 221.7735067 C-221.03400573 219.5248751 -218.78032567 217.29077166 -216.52636719 215.05639648 C-214.91231015 213.44183037 -213.29912727 211.82638997 -211.68675232 210.21014404 C-207.31337549 205.83135391 -202.92770214 201.46507249 -198.53957653 197.10106921 C-193.94400726 192.52682327 -189.35941034 187.94160554 -184.77349854 183.35768127 C-177.06964211 175.66027027 -169.3584952 167.97023046 -161.64208984 160.28540039 C-153.71523878 152.39095902 -145.79398036 144.49096688 -137.87939453 136.58422852 C-137.39211438 136.09743386 -136.90483423 135.6106392 -136.40278801 135.10909318 C-134.44369769 133.15193192 -132.48461583 131.19476218 -130.52555256 129.23757383 C-122.50944318 121.22947003 -114.488711 113.22599758 -106.46742344 105.22308087 C-104.64403941 103.40374072 -102.82080697 101.58424862 -100.99772549 99.76460528 C-95.7973483 94.57404592 -90.59461893 89.38586935 -85.3879261 84.2016449 C-83.81336243 82.6331774 -82.23961269 81.0638923 -80.66675377 79.49371529 C-78.51318047 77.3441568 -76.3565675 75.19769372 -74.19915771 73.05198669 C-73.27519483 72.12774726 -73.27519483 72.12774726 -72.33256602 71.18483633 C-68.60067012 67.48122262 -64.74813532 63.96675848 -60.76300359 60.53679138 C-58.37061075 58.45136812 -56.11641789 56.24603809 -53.87109375 54.00390625 C-52.98099609 53.11509766 -52.09089844 52.22628906 -51.17382812 51.31054688 C-50.27083984 50.40369141 -49.36785156 49.49683594 -48.4375 48.5625 C-47.53064453 47.65951172 -46.62378906 46.75652344 -45.68945312 45.82617188 C-41.93558021 42.06685462 -38.2133427 38.32427423 -34.7734375 34.2734375 C-29.58197291 28.2250325 -23.83330534 22.6848676 -18.19165039 17.0612793 C-16.17150943 15.04655229 -14.15683617 13.02646615 -12.14257812 11.00585938 C-10.85969599 9.7236371 -9.57650419 8.44172455 -8.29296875 7.16015625 C-7.6909111 6.55607437 -7.08885345 5.95199249 -6.46855164 5.3296051 C-2.22999327 1.11499663 -2.22999327 1.11499663 0 0 Z " fill="#3EA0E6" transform="translate(401,533)"/>
<path d="M0 0 C2.69342976 1.19065266 4.28842459 2.76502391 6.37056255 4.85129166 C7.2241888 5.69934875 8.07781506 6.54740585 8.95730877 7.42116165 C10.34990414 8.82757919 10.34990414 8.82757919 11.77063274 10.26240921 C12.76414188 11.25512739 13.75830421 12.24719222 14.75306988 13.23865128 C17.45429233 15.93473567 20.14607454 18.64006989 22.83615613 21.34726453 C25.65718981 24.18334472 28.48633762 27.01130842 31.31450176 29.84027481 C36.06826074 34.59772841 40.8163462 39.36078346 45.56067181 44.12764359 C51.63307925 50.22883644 57.7146349 56.32082279 63.79921722 62.4098711 C69.04455563 67.65920643 74.28563352 72.91278982 79.52604365 78.1670444 C81.20245475 79.84753593 82.87943823 81.52745464 84.55650043 83.20729637 C87.20438312 85.86011414 89.84957975 88.51558369 92.49280643 91.17304039 C93.91519901 92.60203433 95.33994 94.02868952 96.76477337 95.45524979 C101.19564211 99.915467 105.48182246 104.43488538 109.58004761 109.20269871 C111.49774704 111.41183569 113.52049091 113.49577936 115.58752728 115.56514359 C116.40204861 116.38281708 117.21656994 117.20049057 118.05577374 118.04294205 C118.91324703 118.89839111 119.77072033 119.75384018 120.65417767 120.63521194 C121.55753353 121.53952454 122.4608894 122.44383713 123.39161968 123.37555313 C125.29229459 125.27690513 127.19393 127.17723122 129.0972929 129.07588577 C131.51551783 131.4884143 133.92922349 133.90540651 136.34160805 136.32377338 C138.67251793 138.65920144 141.00727348 140.99077746 143.34167767 143.32271194 C144.19712673 144.18018524 145.0525758 145.03765854 145.93394756 145.92111588 C146.75162106 146.73563721 147.56929455 147.55015854 148.41174603 148.38936234 C149.11899319 149.0958139 149.82624035 149.80226547 150.55491924 150.53012466 C152.6295461 152.4997694 154.73823927 154.37935121 156.90071392 156.24992752 C160.86780019 159.69994795 164.61969246 163.31993282 168.33484173 167.03779984 C169.3510812 168.04900139 169.3510812 168.04900139 170.38785076 169.08063126 C172.60034148 171.28371312 174.80912792 173.490461 177.01745892 175.69771194 C178.56578763 177.24282312 180.11418972 178.78786078 181.66266155 180.33282852 C184.89533363 183.55953605 188.12595572 186.78828024 191.35534954 190.01826859 C195.4883062 194.15132719 199.62811988 198.2774435 203.76970577 202.40185261 C206.96446276 205.58548483 210.15465811 208.77365803 213.34359264 211.96312141 C214.86817043 213.48652155 216.39436451 215.00830596 217.92222118 216.52841759 C220.05673902 218.65311791 222.18480412 220.78408492 224.31140423 222.91670609 C225.25280758 223.84968018 225.25280758 223.84968018 226.21322918 224.80150223 C231.9721626 230.60187434 235.68406768 235.34936088 236.37683392 243.66255569 C236.11280402 254.10354809 227.84325146 260.66223113 220.91199017 267.45552444 C219.80779546 268.55224202 218.70449297 269.64985856 217.60203838 270.74832535 C214.71114497 273.6240307 211.80845472 276.48752883 208.903018 279.34852982 C205.95544133 282.2551862 203.0191344 285.17317739 200.08191204 288.09029007 C194.90914718 293.22489924 189.72666737 298.34951822 184.53688335 303.46692276 C182.80127412 305.18363792 181.07874951 306.91363451 179.36607647 308.65323257 C175.70699785 312.24487704 171.96613917 313.69092581 166.86511517 314.08052444 C156.04734897 313.57078677 148.43964473 304.72089094 141.28831768 297.49730301 C140.33660945 296.54690553 139.38424117 295.59716864 138.43127733 294.64803016 C135.83389484 292.05731149 133.24588559 289.45740765 130.65939867 286.85581732 C127.86130886 284.04471177 125.05449166 281.2423433 122.24875164 278.43887711 C117.39521724 273.58691195 112.54718417 268.7295062 107.70289707 263.86830902 C100.69896017 256.8399393 93.68670489 249.81991719 86.67242426 242.80187224 C75.29107656 231.41396677 63.91643757 220.01938493 52.54602337 208.62056351 C41.50397638 197.55095849 30.4587673 186.48452436 19.40930462 175.42232132 C18.72764714 174.73987567 18.04598967 174.05743003 17.3436759 173.35430421 C13.923811 169.93052405 10.50388398 166.50680594 7.08392608 163.08311868 C-21.26557364 134.70254405 -49.60418406 106.31111621 -77.93566608 77.91255569 C-76.53792609 75.0089118 -75.18721115 72.90958252 -72.91274738 70.61548233 C-72.29313129 69.98589111 -71.67351521 69.3562999 -71.03512287 68.70763016 C-70.01740299 67.68891327 -70.01740299 67.68891327 -68.97912312 66.64961624 C-67.90567646 65.56368431 -67.90567646 65.56368431 -66.81054401 64.45581436 C-64.44364348 62.06481897 -62.06915137 59.68155211 -59.69347858 57.29927444 C-58.04674286 55.64357545 -56.40008661 53.98779741 -54.75350666 52.33194351 C-51.302164 48.86411209 -47.84645206 45.40069837 -44.3883028 41.9396553 C-39.94860479 37.49455892 -35.52530432 33.03351649 -31.10577297 28.56838131 C-27.71193193 25.14487358 -24.30696793 21.7325992 -20.89876652 18.32339287 C-19.26234181 16.68274895 -17.63005838 15.03796393 -16.00195408 13.38906288 C-13.72988773 11.09028631 -11.4427203 8.80768012 -9.15099812 6.52852249 C-8.47656666 5.83925674 -7.8021352 5.149991 -7.10726643 4.43983841 C-6.48201069 3.82434631 -5.85675495 3.20885422 -5.21255207 2.57471085 C-4.40342711 1.7625689 -4.40342711 1.7625689 -3.5779562 0.93402004 C-1.93566608 -0.08744431 -1.93566608 -0.08744431 0 0 Z " fill="#3EA0E6" transform="translate(769.9356660842896,370.0874443054199)"/>
<path d="M0 0 C5.26943064 3.51855071 9.49102816 7.30656188 13.6819458 12.0400238 C19.30220105 18.20721089 25.07264751 24.16991377 31.0256958 30.0165863 C31.80529663 30.78570343 32.58489746 31.55482056 33.38812256 32.34724426 C36.58825419 35.5032796 39.79150942 38.65590155 43.00811768 41.79515076 C45.39810806 44.13071514 47.77523705 46.47875593 50.1506958 48.8290863 C50.87561218 49.53022049 51.60052856 50.23135468 52.34741211 50.95373535 C57.53478313 56.11386292 60.31841276 60.21925624 61.2913208 67.63768005 C60.81295464 77.7185923 53.23752221 85.09971014 46.48527527 91.7661438 C45.53404953 92.72314151 44.58391473 93.6812246 43.6347695 94.64028579 C41.04254497 97.2532568 38.43511214 99.85055731 35.82474124 102.44538295 C33.00521731 105.25354804 30.20017618 108.07611901 27.39320374 110.89682007 C21.9012771 116.41093015 16.39597972 121.91149861 10.88569921 127.40726139 C6.4096459 131.87201008 1.93851218 136.34163056 -2.5291729 140.81475258 C-3.16567364 141.45201949 -3.80217439 142.0892864 -4.45796303 142.74586442 C-5.75101362 144.04051365 -7.04405298 145.33517408 -8.33708125 146.6298456 C-20.44790876 158.75491447 -32.57398704 170.86463785 -44.70537161 182.96913413 C-55.12054782 193.36194074 -65.52249982 203.76783221 -75.91497803 214.18333435 C-87.98632046 226.28140761 -100.06569722 238.3713638 -112.15809721 250.44839221 C-113.44607572 251.73477796 -114.73404377 253.02117416 -116.02200127 254.30758095 C-116.65570884 254.94051714 -117.28941642 255.57345334 -117.94232725 256.22556942 C-122.41401985 260.69293927 -126.87987287 265.16609629 -131.34352303 269.64150047 C-136.77641621 275.08838555 -142.21806428 280.52633529 -147.67129166 285.95286538 C-150.45480947 288.72320538 -153.23411012 291.49746112 -156.0028038 294.28262329 C-158.53405495 296.82870304 -161.07642865 299.36307755 -163.62842601 301.88835774 C-164.99259179 303.2442358 -166.34441261 304.61249885 -167.69584805 305.98106593 C-168.90494057 307.17060035 -168.90494057 307.17060035 -170.13845921 308.38416576 C-171.18014345 309.42463237 -171.18014345 309.42463237 -172.24287182 310.4861185 C-174.2086792 311.82518005 -174.2086792 311.82518005 -176.35909957 311.62114036 C-178.56516192 310.67176893 -179.84286588 309.56028437 -181.5369873 307.8576355 C-182.17354752 307.22519928 -182.81010773 306.59276306 -183.46595764 305.94116211 C-184.15288193 305.243452 -184.83980621 304.54574188 -185.54754639 303.82688904 C-186.27964828 303.09522522 -187.01175018 302.3635614 -187.76603699 301.60972595 C-190.18638704 299.18728432 -192.59593539 296.75438628 -195.0055542 294.3212738 C-196.68070139 292.64053201 -198.35651174 290.96045092 -200.03295898 289.28100586 C-204.44545879 284.85704678 -208.8488759 280.42415273 -213.25048828 275.98936462 C-217.74284007 271.46633553 -222.24368687 266.95177761 -226.74383545 262.43650818 C-235.57380398 253.57435636 -244.39449603 244.7030305 -253.2086792 235.82518005 C-252.26714154 234.71596176 -251.32404538 233.60806626 -250.38031006 232.50071716 C-249.85529404 231.88361374 -249.33027802 231.26651031 -248.78935242 230.63070679 C-245.74645728 227.15495452 -242.39009704 223.9921835 -239.08758545 220.7665863 C-237.03661621 218.72054305 -235.13865736 216.59521074 -233.2633667 214.38768005 C-228.05587023 208.37607964 -222.35990452 202.82766565 -216.72991943 197.21604919 C-214.77572296 195.26721136 -212.82692773 193.31308733 -210.87860107 191.35838318 C-205.504875 185.98199483 -200.15172082 180.67221121 -194.35736084 175.74681091 C-189.38477124 171.29967391 -184.73457987 166.49745423 -180.02679443 161.77366638 C-178.15038445 159.89189731 -176.26868951 158.01553267 -174.38641357 156.13963318 C-173.16929599 154.92185467 -171.9524887 153.70376594 -170.73602295 152.4853363 C-169.90916237 151.66151207 -169.90916237 151.66151207 -169.06559753 150.82104492 C-166.37145863 148.11100959 -163.7899912 145.35770021 -161.32058716 142.4410553 C-155.89529744 136.22170453 -150.00315863 130.44650035 -144.18011475 124.60374451 C-142.86510197 123.28081677 -141.55026712 121.95771215 -140.2355957 120.63444519 C-135.9425895 116.3154011 -131.64429301 112.00164286 -127.34539795 107.6884613 C-125.86004351 106.1977415 -124.37469516 104.70701563 -122.8893528 103.2162838 C-116.71057638 97.01591409 -110.53037252 90.81697304 -104.34643841 84.62174702 C-95.50804039 75.76709713 -86.67825052 66.90405812 -77.86021775 58.02912551 C-71.64369931 51.77387272 -65.41759351 45.52826582 -59.18432075 39.28970879 C-55.46779375 35.56953604 -51.75553207 31.84533258 -48.05347252 28.11075783 C-44.57186322 24.59900326 -41.07848111 21.09939743 -37.57589722 17.60856628 C-36.2969409 16.32983009 -35.02221252 15.04684813 -33.7522068 13.75922203 C-13.22664687 -7.03539408 -13.22664687 -7.03539408 0 0 Z " fill="#3EA0E6" transform="translate(782.2086791992188,170.17481994628906)"/>
<path d="M0 0 C6.06520954 4.03898729 11.11932191 8.71511324 16.23394966 13.88743401 C17.12134834 14.77278831 18.00874702 15.65814262 18.92303658 16.57032585 C21.33342304 18.97823595 23.73698076 21.3925809 26.13749361 23.81030989 C28.66482144 26.35279917 31.20037756 28.8870588 33.73489571 31.42237663 C37.98799765 35.67915884 42.23544757 39.94151184 46.47906685 44.20774651 C51.90671289 49.66426103 57.34358151 55.1114877 62.78345108 60.55581284 C67.48529672 65.26165569 72.18288538 69.97174165 76.87979841 74.68250704 C78.37777578 76.1845586 79.87632095 77.68604187 81.37494469 79.1874485 C84.18003361 81.99839718 86.98067949 84.81374769 89.78082466 87.62962151 C90.60178627 88.45170097 91.42274788 89.27378044 92.26858711 90.12077141 C95.67344206 93.55085245 99.01168592 96.98820397 102.15104866 100.66395378 C107.31599118 106.65322077 113.00874194 112.14952335 118.60626411 117.72971916 C119.88828351 119.01145606 121.17008191 120.29341403 122.45167732 121.57557487 C125.91172744 125.03591055 129.37484034 128.49316593 132.83853221 131.9498558 C136.46514335 135.57019302 140.08890106 139.19338413 143.71296883 142.81626701 C150.56726137 149.66745812 157.42409785 156.51609727 164.28186327 163.36381197 C172.09280764 171.16355827 179.90089458 178.96616239 187.7087487 186.76900196 C203.76199704 202.81181281 219.81881127 218.85105067 235.87799263 234.88792229 C231.71602785 239.84324005 227.39364658 244.53414899 222.8345356 249.12425041 C222.15733467 249.80962883 221.48013374 250.49500725 220.78241158 251.20115471 C218.56467222 253.44349407 216.34299373 255.68186338 214.12018013 257.91917229 C213.35839581 258.68628029 212.59661148 259.45338829 211.81174278 260.24374199 C207.7903292 264.29175713 203.76533673 268.3361785 199.73785591 272.37815666 C196.40399894 275.72542626 193.07758848 279.07984225 189.75738716 282.44065666 C185.74146113 286.50569071 181.71359451 290.55850933 177.67661095 294.60262871 C176.14052304 296.14545174 174.60871092 297.69254388 173.08123589 299.24389458 C170.95319415 301.40332932 168.81016433 303.54669437 166.6626606 305.68675041 C166.03191628 306.33390007 165.40117195 306.98104973 164.75131416 307.64780998 C162.97610664 309.39780998 162.97610664 309.39780998 159.87799263 311.88792229 C156.41251752 311.63416783 154.70160416 310.08524364 152.3075285 307.68660164 C151.61293547 306.99798176 150.91834245 306.30936188 150.20270115 305.59987473 C149.44735535 304.83579041 148.69200956 304.07170609 147.91377449 303.2844677 C147.10534125 302.47859773 146.29690802 301.67272777 145.4639768 300.84243751 C143.21967201 298.60222544 140.98224192 296.35539765 138.74751341 294.10563993 C136.33639001 291.68157732 133.91661973 289.26617395 131.49788094 286.84971428 C127.30670191 282.66010964 123.12105868 278.46503919 118.93910599 274.26622581 C112.88724751 268.18998527 106.82712126 262.12204635 100.76494544 256.05610129 C90.92280965 246.207396 81.08739315 236.35200864 71.25616646 226.49241447 C61.71766832 216.92642232 52.17605809 207.36355233 42.6301899 197.80491447 C41.74886907 196.9224114 41.74886907 196.9224114 40.84974379 196.02207997 C37.90148788 193.06990818 34.95316966 190.11779862 32.00481999 187.16572046 C11.67018344 166.80524224 -8.65779604 146.43813559 -28.979002 126.06425285 C-29.83610395 125.20493212 -30.69320591 124.34561138 -31.57628065 123.46025062 C-33.15521748 121.87718767 -34.73411774 120.29408826 -36.31297249 118.71094346 C-43.14414069 111.85101249 -43.14414069 111.85101249 -50.01287651 105.02879143 C-52.80930717 102.26794873 -55.59963672 99.50102987 -58.38787651 96.73191643 C-59.58563937 95.54424479 -60.78518638 94.35836975 -61.98650932 93.17429924 C-63.73569889 91.44950028 -65.47823085 89.71820456 -67.21966362 87.98557854 C-67.75205147 87.46351326 -68.28443932 86.94144798 -68.83296013 86.40356255 C-74.21003668 81.02809733 -78.22728091 75.9268328 -78.37200737 68.07542229 C-78.39778862 67.24397697 -78.42356987 66.41253166 -78.45013237 65.55589104 C-77.58592241 58.52904099 -72.89849205 54.27102775 -68.07513237 49.58323479 C-67.38570549 48.90042442 -66.69627861 48.21761406 -65.98596001 47.51411247 C-63.78833193 45.33979342 -61.58079723 43.17589664 -59.37200737 41.01292229 C-57.17922304 38.85542747 -54.9886745 36.69573173 -52.80090141 34.53315544 C-51.44290271 33.19186589 -50.08181881 31.85368965 -48.71703911 30.51930046 C-44.86993503 26.73174471 -41.23399616 22.82762388 -37.71833611 18.72997856 C-14.77617799 -7.74373287 -14.77617799 -7.74373287 0 0 Z " fill="#3E9FE6" transform="translate(406.1220073699951,7.112077713012695)"/>
<path d="M0 0 C5.14434543 1.4907928 8.06663998 4.65107674 11.72450256 8.35700989 C12.38748791 9.01672639 13.05047325 9.67644289 13.73354906 10.35615081 C15.95464099 12.56995637 18.1648406 14.794325 20.37524414 17.01879883 C21.96489357 18.60765746 23.55519606 20.19586293 25.14610291 21.78346252 C29.46683425 26.0990552 33.77816166 30.42393286 38.0877564 34.75064301 C42.59717046 39.27508352 47.11467927 43.79142767 51.63121033 48.3087616 C59.21628466 55.89752991 66.79573779 63.49186452 74.37133789 71.09008789 C82.16244922 78.90444912 89.95808428 86.71425801 97.7590332 94.51879883 C98.23935126 94.99933965 98.71966931 95.47988047 99.21454246 95.97498313 C100.18218617 96.94306945 101.14983017 97.91115548 102.11747446 98.87924121 C102.83350656 99.59560265 102.83350656 99.59560265 103.56400394 100.32643604 C104.04016929 100.80281737 104.51633463 101.2791987 105.00692922 101.77001582 C112.89409614 109.66111067 120.77687511 117.55658803 128.65947032 125.45224929 C131.34861943 128.1454959 134.03835393 130.83815683 136.72816658 133.53074074 C140.9552415 137.76271329 145.17964856 141.99733169 149.40200233 146.23401451 C150.9523602 147.78889068 152.50355757 149.3429303 154.05565262 150.89607239 C156.17358816 153.01575728 158.28842467 155.13848644 160.40248108 157.26203918 C161.01775274 157.87644436 161.6330244 158.49084954 162.26694065 159.12387305 C165.39840345 162.27646831 168.26726115 165.48647884 171 169 C172.12580032 170.04964466 173.28362527 171.0660527 174.47167969 172.04467773 C180.42983748 177.14756266 185.90802988 182.74361522 191.453125 188.28515625 C192.64273102 189.47154224 193.83240924 190.65785585 195.02215576 191.84410095 C197.50156752 194.31755948 199.97893915 196.79304076 202.45507812 199.26977539 C205.61949355 202.43429282 208.79075882 205.59184921 211.96379471 208.74771976 C214.41738895 211.19017542 216.86640442 213.63718297 219.31417084 216.08547783 C220.4814887 217.25162058 221.65041707 218.41615362 222.82102203 219.57899666 C224.45743593 221.20556254 226.08733302 222.83840363 227.71582031 224.47290039 C228.64211243 225.39776749 229.56840454 226.32263458 230.52276611 227.27552795 C235.15445206 232.36947526 238.1074316 236.7992604 238.3125 243.75 C238.34988281 244.56984375 238.38726563 245.3896875 238.42578125 246.234375 C237.44396413 252.61168255 233.06876898 257.37941743 228.63989258 261.79589844 C228.11731873 262.32854813 227.59474487 262.86119781 227.05633545 263.4099884 C225.34354807 265.15104194 223.61988714 266.88078185 221.89453125 268.609375 C220.68847819 269.82508172 219.48264586 271.04100745 218.27702332 272.25714111 C215.75468808 274.79738273 213.22628627 277.33140462 210.6940918 279.86181641 C207.46207314 283.09353002 204.25120206 286.34540392 201.04526234 289.60296249 C198.56329392 292.118398 196.06769553 294.61996713 193.56815147 297.11792755 C192.37887374 298.31072773 191.19441601 299.50835518 190.01508522 300.71099091 C177.21836798 313.73677761 177.21836798 313.73677761 167.21484375 314.1015625 C155.60333009 311.67170887 147.91442792 301.05000791 139.8359375 292.93359375 C138.62630214 291.72203598 137.41643651 290.51070808 136.20635986 289.29959106 C133.61426023 286.70434583 131.02371867 284.10755907 128.43438721 281.509552 C124.33452122 277.39609124 120.23077901 273.28651206 116.12646484 269.17749023 C106.6747813 259.71379614 97.22813055 250.24508352 87.78152466 240.77632141 C79.1188986 232.09348204 70.45519811 223.41172191 61.78743172 214.73401356 C57.71298914 210.65460813 53.64099281 206.57278162 49.57089233 202.48904419 C47.03294505 199.94360393 44.49289742 197.4002674 41.9522934 194.8574791 C40.78081291 193.68413683 39.61019196 192.50993562 38.44052887 191.33478165 C33.08602987 185.95595327 27.7235148 180.66179452 21.95201111 175.7251873 C17.88637117 172.13197497 14.10660453 168.23596613 10.27929688 164.39282227 C9.33253121 163.44577386 8.38554397 162.49894692 7.43835449 161.55232239 C4.891212 159.00546447 2.34714447 156.45555559 -0.19634438 153.90504956 C-2.86374774 151.23135565 -5.53402108 148.56053104 -8.20397949 145.88938904 C-13.24895938 140.84131254 -18.29138676 135.79069448 -23.33288145 130.73913759 C-29.07703632 124.98376948 -34.82406237 119.231272 -40.57132053 113.47900307 C-52.38405755 101.65583952 -64.19321893 89.82911132 -76 78 C-74.67289741 75.05790165 -73.23210009 72.98385569 -70.95016479 70.70965576 C-70.32476807 70.0815097 -69.69937134 69.45336365 -69.05502319 68.80618286 C-68.37025909 68.12860931 -67.685495 67.45103577 -66.97998047 66.75292969 C-66.25792419 66.03058136 -65.53586792 65.30823303 -64.79193115 64.56399536 C-62.40506011 62.17851721 -60.0111838 59.80020061 -57.6171875 57.421875 C-55.96051221 55.76892998 -54.30427805 54.11554273 -52.64846802 52.46173096 C-48.28974083 48.11063912 -43.92504076 43.76558687 -39.55908203 39.42175293 C-35.10478495 34.98791629 -30.65614582 30.54841091 -26.20703125 26.109375 C-17.47689145 17.4006834 -8.74043306 8.69835992 0 0 Z " fill="#3EA0E6" transform="translate(442,696)"/>
<path d="M0 0 C6.16770959 4.91402359 11.59721576 10.66111307 17.13873291 16.2567749 C18.52098941 17.64209547 19.90384313 19.02682038 21.28726196 20.41098022 C24.17464925 23.3029506 27.05708381 26.19973282 29.93560791 29.1005249 C33.60806253 32.80125969 37.28913479 36.49326635 40.97352028 40.18211937 C44.51091577 43.72469386 48.04362759 47.27192492 51.57623291 50.8192749 C52.57418821 51.82005129 52.57418821 51.82005129 53.59230423 52.84104538 C55.49399947 54.74968932 57.39229216 56.6616535 59.28961182 58.574646 C59.83940201 59.12555405 60.3891922 59.6764621 60.9556427 60.24406433 C63.74159729 63.060222 66.41083652 65.93587662 68.99310207 68.94053078 C72.3895037 72.83517429 75.9408616 76.52511178 79.60270691 80.16912842 C80.58560561 81.15330875 80.58560561 81.15330875 81.58836085 82.15737152 C83.7615618 84.33220578 85.93829184 86.50347148 88.11505127 88.67474365 C89.68278125 90.24219127 91.2502905 91.8098597 92.81759644 93.37773132 C97.05654642 97.61696736 101.2985652 101.85312035 105.54115367 106.0887146 C109.98054993 110.52184544 114.41710087 114.95782194 118.85395813 119.39349365 C126.29598604 126.83276995 133.73975576 134.27030005 141.18487549 141.70648193 C148.85011613 149.3625301 156.51429574 157.01963787 164.17706299 164.67816162 C164.65015622 165.15099213 165.12324945 165.62382264 165.61067884 166.11098135 C167.98426898 168.48326635 170.35783839 170.85557208 172.73139751 173.22788811 C192.39265792 192.87870539 212.05748448 212.52595071 231.72467041 232.1708374 C225.45325929 239.56218791 225.45325929 239.56218791 222.37258911 242.67681885 C221.78113098 243.27687744 221.18967285 243.87693604 220.58029175 244.49517822 C219.64024796 245.44161194 219.64024796 245.44161194 218.68121338 246.40716553 C218.00401245 247.09254395 217.32681152 247.77792236 216.62908936 248.48406982 C214.41135 250.72640918 212.18967151 252.9647785 209.96685791 255.2020874 C209.20507359 255.9691954 208.44328926 256.73630341 207.65842056 257.5266571 C203.63700698 261.57467225 199.61201451 265.61909362 195.58453369 269.66107178 C192.25067673 273.00834138 188.92426626 276.36275737 185.60406494 279.72357178 C181.58813891 283.78860583 177.56027229 287.84142445 173.52328873 291.88554382 C171.98720082 293.42836686 170.4553887 294.97545899 168.92791367 296.52680969 C166.79987193 298.68624444 164.65684211 300.82960949 162.50933838 302.96966553 C161.87859406 303.61681519 161.24784973 304.26396484 160.59799194 304.9307251 C156.29353457 309.17406021 156.29353457 309.17406021 153.88796902 309.16043186 C150.67470057 307.69053185 148.45943535 305.31066674 146.01377869 302.82743835 C145.44768617 302.26461468 144.88159365 301.701791 144.29834682 301.12191206 C142.39898569 299.2298467 140.51055813 297.32723162 138.62188721 295.42449951 C137.26385094 294.06725394 135.90516171 292.71066144 134.54586792 291.35467529 C130.85088306 287.66483331 127.16532174 283.96570669 123.48147178 280.26475215 C119.623421 276.39167369 115.75727443 272.52669289 111.8921051 268.66072083 C105.39644841 262.16136845 98.90645876 255.65640176 92.42022705 249.14764404 C84.10806892 240.8066766 75.78673164 232.47493093 67.46238995 224.14612484 C60.2967173 216.97646174 53.13530658 209.80254589 45.97456765 202.62795568 C43.67837438 200.32767436 41.38160292 198.02797155 39.08475304 195.72834587 C35.46506603 192.10373974 31.84805566 188.47648232 28.2330513 184.84720612 C26.90970175 183.51935993 25.58553155 182.192331 24.26045799 180.86620522 C18.45006401 175.05016482 12.68018497 169.26790264 7.34181881 163.0096426 C4.09530405 159.31813958 0.56045353 155.90329426 -2.93280029 152.44744873 C-3.76941696 151.61550491 -4.60603363 150.7835611 -5.46800232 149.92640686 C-7.2713257 148.13352692 -9.07574567 146.34174942 -10.88115883 144.55097389 C-13.7376048 141.71665741 -16.59011633 138.87844184 -19.44114685 136.03868103 C-27.54307168 127.97002745 -35.64931035 119.90574143 -43.76580811 111.85174561 C-48.26110341 107.39098237 -52.75101313 102.92487166 -57.2350108 98.45275134 C-59.6029294 96.09159275 -61.97439049 93.73426805 -64.35097694 91.38181496 C-66.9958233 88.76338081 -69.6313042 86.13585357 -72.26483154 83.50604248 C-73.44379501 82.34561432 -73.44379501 82.34561432 -74.64657593 81.16174316 C-75.36282639 80.44281387 -76.07907684 79.72388458 -76.81703186 78.98316956 C-77.75191925 78.05437847 -77.75191925 78.05437847 -78.70569324 77.10682392 C-81.6516134 73.47333154 -82.56598302 69.84296386 -82.58782959 65.2333374 C-82.6045874 64.41993896 -82.62134521 63.60654053 -82.63861084 62.76849365 C-81.69099387 55.99252285 -77.34666748 51.84350413 -72.66595459 47.3036499 C-71.6984024 46.34602249 -71.6984024 46.34602249 -70.71130371 45.36904907 C-68.65633444 43.33737322 -66.59147374 41.31614229 -64.52532959 39.2958374 C-62.47519298 37.28101461 -60.42730397 35.26398221 -58.38220215 33.24404907 C-57.11324526 31.99177395 -55.84120323 30.74261379 -54.56542969 29.49728394 C-50.80240507 25.79645648 -47.27694574 21.95547568 -43.82849121 17.9602356 C-40.79562587 14.46607009 -37.53302782 11.20349884 -34.27532959 7.9208374 C-33.26599365 6.88056396 -33.26599365 6.88056396 -32.23626709 5.8192749 C-22.47176783 -4.02062589 -12.23382802 -8.5026032 0 0 Z " fill="#3E9FE6" transform="translate(84.27532958984375,335.82916259765625)"/>
<path d="M0 0 C2.25411682 0.91308626 3.49684331 2.00707472 5.21152699 3.73038936 C5.8480872 4.36282557 6.48464741 4.99526179 7.14049733 5.64686275 C8.17088376 6.69342792 8.17088376 6.69342792 9.22208607 7.76113582 C9.95418797 8.49279963 10.68628987 9.22446345 11.44057667 9.9782989 C13.86092673 12.40074053 16.27047507 14.83363857 18.68009388 17.26675105 C20.35524107 18.94749285 22.03105142 20.62757393 23.70749867 22.307019 C28.11999848 26.73097807 32.52341559 31.16387212 36.92502797 35.59866023 C41.41737975 40.12168932 45.91822655 44.63624724 50.41837513 49.15151668 C59.24834367 58.01366849 68.06903572 66.88499435 76.88321888 75.7628448 C75.5155751 78.82287477 73.96405536 80.93425559 71.60290921 83.3032167 C70.92213177 83.99105973 70.24135433 84.67890276 69.53994727 85.38758951 C68.78976652 86.13535519 68.03958576 86.88312086 67.26667225 87.65354609 C66.47149296 88.45396207 65.67631366 89.25437805 64.85703802 90.07904905 C62.18255585 92.76857236 59.5009331 95.45086004 56.81925404 98.13320613 C54.90335334 100.0556432 52.98891851 101.97953786 51.07436574 103.90331721 C45.86702286 109.13350372 40.65223111 114.356221 35.43598425 119.57752514 C32.18069154 122.83607404 28.92703459 126.09625279 25.67372715 129.35678363 C16.66967894 138.3803929 7.66405717 147.40242312 -1.3483237 156.41771102 C-1.92493141 156.99450629 -2.50153911 157.57130157 -3.09561978 158.16557549 C-4.26457528 159.33489724 -5.43353206 160.50421772 -6.60249011 161.67353693 C-7.18277255 162.25400218 -7.76305499 162.83446743 -8.36092174 163.43252254 C-8.94191138 164.01369272 -9.52290101 164.5948629 -10.12149639 165.19364431 C-19.54674057 174.62243428 -28.96017576 184.06291934 -38.36849551 193.50859419 C-48.02305873 203.20118385 -57.68689724 212.88444159 -67.36034155 222.55818838 C-72.79355846 227.99199095 -78.2227188 233.42971403 -83.64178646 238.87763095 C-88.25342837 243.5137105 -92.87349094 248.14118364 -97.50491129 252.75750826 C-99.86927538 255.11467329 -102.22785376 257.47695605 -104.57867038 259.84767795 C-107.12321307 262.41245599 -109.68248803 264.96153462 -112.2462672 267.50706172 C-112.99198651 268.265981 -113.73770582 269.02490028 -114.50602269 269.80681711 C-115.19201563 270.48162141 -115.87800856 271.1564257 -116.58478916 271.85167861 C-117.17454985 272.44225375 -117.76431053 273.0328289 -118.37194276 273.64130026 C-120.11678112 274.7628448 -120.11678112 274.7628448 -122.23356223 274.5256896 C-124.48767905 273.61260334 -125.73040554 272.51861488 -127.44508922 270.79530025 C-128.08164943 270.16286403 -128.71820964 269.53042781 -129.37405956 268.87882686 C-130.06098384 268.18111674 -130.74790813 267.48340663 -131.4556483 266.76455379 C-132.1877502 266.03288997 -132.9198521 265.30122615 -133.6741389 264.5473907 C-136.09448896 262.12494907 -138.50403731 259.69205103 -140.91365612 257.25893855 C-142.5888033 255.57819675 -144.26461365 253.89811567 -145.9410609 252.21867061 C-150.35356071 247.79471153 -154.75697782 243.36181748 -159.1585902 238.92702937 C-163.65094198 234.40400028 -168.15178879 229.88944236 -172.65193737 225.37417293 C-181.4819059 216.51202111 -190.30259795 207.64069525 -199.11678112 198.7628448 C-197.74913733 195.70281483 -196.1976176 193.59143401 -193.83647144 191.22247291 C-193.155694 190.53462988 -192.47491656 189.84678685 -191.7735095 189.13810009 C-190.64823837 188.01645158 -190.64823837 188.01645158 -189.50023448 186.87214351 C-188.70505519 186.07172753 -187.90987589 185.27131156 -187.09060025 184.44664055 C-184.41611808 181.75711725 -181.73449533 179.07482956 -179.05281627 176.39248347 C-177.13691557 174.4700464 -175.22248074 172.54615174 -173.30792797 170.62237239 C-168.10058509 165.39218588 -162.88579334 160.1694686 -157.66954648 154.94816446 C-154.41425377 151.68961556 -151.16059682 148.42943681 -147.90728939 145.16890597 C-138.90324117 136.14529671 -129.8976194 127.12326649 -120.88523853 118.10797858 C-120.02032697 117.24278567 -120.02032697 117.24278567 -119.13794246 116.36011412 C-117.96898695 115.19079236 -116.80003017 114.02147188 -115.63107212 112.85215267 C-114.76064846 111.9814548 -114.76064846 111.9814548 -113.87264049 111.09316707 C-113.29165085 110.51199688 -112.71066122 109.9308267 -112.11206584 109.33204529 C-102.68682166 99.90325532 -93.27338648 90.46277026 -83.86506672 81.01709541 C-74.2105035 71.32450575 -64.546665 61.64124801 -54.87322068 51.96750122 C-49.44000377 46.53369865 -44.01084343 41.09597557 -38.59177577 35.64805865 C-33.98013386 31.01197911 -29.36007129 26.38450597 -24.72865094 21.76818135 C-22.36428685 19.41101631 -20.00570847 17.04873355 -17.65489185 14.67801166 C-15.11034916 12.11323361 -12.5510742 9.56415498 -9.98729503 7.01862788 C-8.86871606 5.88024896 -8.86871606 5.88024896 -7.72753954 4.71887249 C-7.04154661 4.04406819 -6.35555367 3.3692639 -5.64877307 2.67401099 C-4.76413204 1.78814827 -4.76413204 1.78814827 -3.86161947 0.88438934 C-2.11678112 -0.2371552 -2.11678112 -0.2371552 0 0 Z " fill="#3EA0E6" transform="translate(728.1167811155319,533.2371551990509)"/>
<path d="M0 0 C2.25411682 0.91308626 3.49684331 2.00707472 5.21152699 3.73038936 C5.8480872 4.36282557 6.48464741 4.99526179 7.14049733 5.64686275 C8.17088376 6.69342792 8.17088376 6.69342792 9.22208607 7.76113582 C9.95418797 8.49279963 10.68628987 9.22446345 11.44057667 9.9782989 C13.86092673 12.40074053 16.27047507 14.83363857 18.68009388 17.26675105 C20.35524107 18.94749285 22.03105142 20.62757393 23.70749867 22.307019 C28.11999848 26.73097807 32.52341559 31.16387212 36.92502797 35.59866023 C41.41737975 40.12168932 45.91822655 44.63624724 50.41837513 49.15151668 C59.24834367 58.01366849 68.06903572 66.88499435 76.88321888 75.7628448 C75.5155751 78.82287477 73.96405536 80.93425559 71.60290921 83.3032167 C70.92213177 83.99105973 70.24135433 84.67890276 69.53994727 85.38758951 C68.78976652 86.13535519 68.03958576 86.88312086 67.26667225 87.65354609 C66.47149296 88.45396207 65.67631366 89.25437805 64.85703802 90.07904905 C62.18255585 92.76857236 59.5009331 95.45086004 56.81925404 98.13320613 C54.90335334 100.0556432 52.98891851 101.97953786 51.07436574 103.90331721 C45.86702286 109.13350372 40.65223111 114.356221 35.43598425 119.57752514 C32.18069154 122.83607404 28.92703459 126.09625279 25.67372715 129.35678363 C16.66967894 138.3803929 7.66405717 147.40242312 -1.3483237 156.41771102 C-1.92493141 156.99450629 -2.50153911 157.57130157 -3.09561978 158.16557549 C-4.26457528 159.33489724 -5.43353206 160.50421772 -6.60249011 161.67353693 C-7.18277255 162.25400218 -7.76305499 162.83446743 -8.36092174 163.43252254 C-8.94191138 164.01369272 -9.52290101 164.5948629 -10.12149639 165.19364431 C-19.54674057 174.62243428 -28.96017576 184.06291934 -38.36849551 193.50859419 C-48.02305873 203.20118385 -57.68689724 212.88444159 -67.36034155 222.55818838 C-72.79355846 227.99199095 -78.2227188 233.42971403 -83.64178646 238.87763095 C-88.25342837 243.5137105 -92.87349094 248.14118364 -97.50491129 252.75750826 C-99.86927538 255.11467329 -102.22785376 257.47695605 -104.57867038 259.84767795 C-107.12321307 262.41245599 -109.68248803 264.96153462 -112.2462672 267.50706172 C-112.99198651 268.265981 -113.73770582 269.02490028 -114.50602269 269.80681711 C-115.19201563 270.48162141 -115.87800856 271.1564257 -116.58478916 271.85167861 C-117.17454985 272.44225375 -117.76431053 273.0328289 -118.37194276 273.64130026 C-120.11678112 274.7628448 -120.11678112 274.7628448 -122.23356223 274.5256896 C-124.48767905 273.61260334 -125.73040554 272.51861488 -127.44508922 270.79530025 C-128.08164943 270.16286403 -128.71820964 269.53042781 -129.37405956 268.87882686 C-130.06098384 268.18111674 -130.74790813 267.48340663 -131.4556483 266.76455379 C-132.1877502 266.03288997 -132.9198521 265.30122615 -133.6741389 264.5473907 C-136.09448896 262.12494907 -138.50403731 259.69205103 -140.91365612 257.25893855 C-142.5888033 255.57819675 -144.26461365 253.89811567 -145.9410609 252.21867061 C-150.35356071 247.79471153 -154.75697782 243.36181748 -159.1585902 238.92702937 C-163.65094198 234.40400028 -168.15178879 229.88944236 -172.65193737 225.37417293 C-181.4819059 216.51202111 -190.30259795 207.64069525 -199.11678112 198.7628448 C-197.74913733 195.70281483 -196.1976176 193.59143401 -193.83647144 191.22247291 C-193.155694 190.53462988 -192.47491656 189.84678685 -191.7735095 189.13810009 C-190.64823837 188.01645158 -190.64823837 188.01645158 -189.50023448 186.87214351 C-188.70505519 186.07172753 -187.90987589 185.27131156 -187.09060025 184.44664055 C-184.41611808 181.75711725 -181.73449533 179.07482956 -179.05281627 176.39248347 C-177.13691557 174.4700464 -175.22248074 172.54615174 -173.30792797 170.62237239 C-168.10058509 165.39218588 -162.88579334 160.1694686 -157.66954648 154.94816446 C-154.41425377 151.68961556 -151.16059682 148.42943681 -147.90728939 145.16890597 C-138.90324117 136.14529671 -129.8976194 127.12326649 -120.88523853 118.10797858 C-120.02032697 117.24278567 -120.02032697 117.24278567 -119.13794246 116.36011412 C-117.96898695 115.19079236 -116.80003017 114.02147188 -115.63107212 112.85215267 C-114.76064846 111.9814548 -114.76064846 111.9814548 -113.87264049 111.09316707 C-113.29165085 110.51199688 -112.71066122 109.9308267 -112.11206584 109.33204529 C-102.68682166 99.90325532 -93.27338648 90.46277026 -83.86506672 81.01709541 C-74.2105035 71.32450575 -64.546665 61.64124801 -54.87322068 51.96750122 C-49.44000377 46.53369865 -44.01084343 41.09597557 -38.59177577 35.64805865 C-33.98013386 31.01197911 -29.36007129 26.38450597 -24.72865094 21.76818135 C-22.36428685 19.41101631 -20.00570847 17.04873355 -17.65489185 14.67801166 C-15.11034916 12.11323361 -12.5510742 9.56415498 -9.98729503 7.01862788 C-8.86871606 5.88024896 -8.86871606 5.88024896 -7.72753954 4.71887249 C-7.04154661 4.04406819 -6.35555367 3.3692639 -5.64877307 2.67401099 C-4.76413204 1.78814827 -4.76413204 1.78814827 -3.86161947 0.88438934 C-2.11678112 -0.2371552 -2.11678112 -0.2371552 0 0 Z " fill="#3EA0E6" transform="translate(402.1167811155319,207.2371551990509)"/>
<path d="M0 0 C3.60414377 1.26043237 5.9677337 2.59339493 8.66062641 5.29148293 C9.34984379 5.97472716 10.03906117 6.65797139 10.74916393 7.36192 C11.49333464 8.11482923 12.23750535 8.86773847 13.00422668 9.64346313 C13.80479152 10.44146469 14.60535635 11.23946625 15.43018073 12.06164968 C18.11664467 14.74316383 20.79223102 17.43527568 23.46801758 20.12744141 C25.3884347 22.05037429 27.31111292 23.97104056 29.23370361 25.89179993 C33.37467429 30.03119777 37.51011794 34.1760517 41.64185524 38.32466507 C47.61565177 44.32284565 53.59771788 50.31272237 59.58183285 56.30060665 C69.2904954 66.01583462 78.99243995 75.73774279 88.69018555 85.46386719 C98.1104975 94.91171737 107.53395606 104.35641068 116.96166992 113.796875 C117.54282044 114.37881369 118.12397096 114.96075238 118.7227321 115.56032558 C121.63822119 118.47972978 124.5537723 121.39907202 127.46935427 124.31838346 C151.65586223 148.53599012 175.83147797 172.76444413 200 197 C198.60226 199.9036439 197.25154506 202.00297317 194.9770813 204.29707336 C194.35746521 204.92666458 193.73784912 205.5562558 193.09945679 206.20492554 C192.42097687 206.88407013 191.74249695 207.56321472 191.04345703 208.26293945 C190.32782593 208.98689407 189.61219482 209.71084869 188.87487793 210.45674133 C186.5079774 212.84773672 184.13348529 215.23100359 181.7578125 217.61328125 C180.11107678 219.26898024 178.46442053 220.92475828 176.81784058 222.58061218 C173.36649792 226.0484436 169.91078598 229.51185733 166.45263672 232.97290039 C162.0129387 237.41799677 157.58963823 241.87903921 153.17010689 246.34417439 C149.77626584 249.76768212 146.37130184 253.1799565 142.96310043 256.58916283 C141.32667573 258.22980674 139.69439229 259.87459176 138.06628799 261.52349281 C135.79422164 263.82226938 133.50705421 266.10487557 131.21533203 268.3840332 C130.54090057 269.07329895 129.86646912 269.7625647 129.17160034 270.47271729 C128.5463446 271.08820938 127.92108887 271.70370148 127.27688599 272.33784485 C126.73746935 272.87927281 126.19805271 273.42070078 125.64229012 273.97853565 C124 275 124 275 122.11943161 274.7628448 C119.58598659 273.85098459 118.34621734 272.71900421 116.44680405 270.81594753 C115.75609432 270.13121095 115.06538459 269.44647437 114.35374427 268.74098819 C113.22728252 267.60141866 113.22728252 267.60141866 112.07806396 266.43882751 C111.27427 265.63759683 110.47047604 264.83636614 109.64232469 264.01085573 C106.93893123 261.31242096 104.24642995 258.60337077 101.55371094 255.89428711 C99.62358858 253.96165029 97.69120663 252.03127855 95.75891113 250.10081482 C91.59391306 245.93739084 87.43444896 241.76850333 83.27867889 237.59586906 C77.27010877 231.56293191 71.25328513 225.53828238 65.23440602 219.51563222 C55.4697297 209.74438781 45.71177355 199.96646078 35.95800781 190.18432617 C26.48235385 180.6811409 17.0035584 171.18110732 7.52050781 161.68530273 C6.93610757 161.10011432 6.35170733 160.51492591 5.749598 159.91200452 C2.81785419 156.97634564 -0.11395163 154.04074869 -3.04578829 151.10518253 C-27.37348065 126.74638312 -51.69028148 102.37673676 -76 78 C-74.59760942 75.08419691 -73.24779496 72.99949735 -70.95016479 70.70965576 C-70.32476807 70.0815097 -69.69937134 69.45336365 -69.05502319 68.80618286 C-68.37025909 68.12860931 -67.685495 67.45103577 -66.97998047 66.75292969 C-66.25792419 66.03058136 -65.53586792 65.30823303 -64.79193115 64.56399536 C-62.40506011 62.17851721 -60.0111838 59.80020061 -57.6171875 57.421875 C-55.96051221 55.76892998 -54.30427805 54.11554273 -52.64846802 52.46173096 C-48.28974083 48.11063912 -43.92504076 43.76558687 -39.55908203 39.42175293 C-35.10478495 34.98791629 -30.65614582 30.54841091 -26.20703125 26.109375 C-17.47689145 17.4006834 -8.74043306 8.69835992 0 0 Z " fill="#3EA0E6" transform="translate(442,370)"/>
<path d="M0 0 C5.06234104 1.48995661 7.94577877 4.51426335 11.56274414 8.15869141 C12.51980507 9.10545746 12.51980507 9.10545746 13.49620056 10.0713501 C15.60025848 12.15712918 17.69306425 14.25378622 19.78515625 16.3515625 C21.24779823 17.80964217 22.71081138 19.26734961 24.17417908 20.72470093 C27.23975176 23.78133954 30.29957799 26.8435942 33.35571289 29.90966797 C37.26335273 33.82877848 41.18658309 37.73184604 45.11454105 41.63057899 C48.14056886 44.63821267 51.15718006 47.65515528 54.17117119 50.67484665 C55.61331736 52.11714575 57.05855376 53.55636206 58.50697517 54.99235916 C60.53664101 57.00706279 62.55302736 59.03421988 64.56665039 61.06494141 C65.45901901 61.94280807 65.45901901 61.94280807 66.36941528 62.83840942 C70.77651647 67.32379725 74.25454327 72.23749791 75.49609375 78.50390625 C75.27149833 86.39469205 73.31770453 90.88876551 67.75 96.4375 C67.02296875 97.11683594 66.2959375 97.79617188 65.546875 98.49609375 C63.52848062 100.48043546 61.71121026 102.46530644 59.8762207 104.6105957 C55.90636185 109.16818624 51.70304629 113.45862436 47.43359375 117.734375 C46.23791527 118.93504608 46.23791527 118.93504608 45.01808167 120.15997314 C43.34449905 121.83858591 41.66958859 123.51587577 39.9934082 125.19189453 C37.43607557 127.75142565 34.88686483 130.31886689 32.33789062 132.88671875 C30.70361499 134.52392676 29.06886558 136.16066201 27.43359375 137.796875 C26.67719101 138.56046326 25.92078827 139.32405151 25.14146423 140.11077881 C18.71752675 146.50717902 14.00957261 150.59772185 4.671875 151.08984375 C-8.09728059 150.66047156 -19.14785996 134.98294792 -27.5625 126.53515625 C-28.96332215 125.13246609 -30.36436743 123.72999872 -31.765625 122.32774353 C-35.43054887 118.6590246 -39.09245808 114.98731122 -42.75372314 111.31494141 C-46.49934506 107.55904022 -50.24784413 103.80601289 -53.99609375 100.05273438 C-61.33352953 92.70461446 -68.66778005 85.3533242 -76 78 C-74.67289741 75.05790165 -73.23210009 72.98385569 -70.95016479 70.70965576 C-70.32476807 70.0815097 -69.69937134 69.45336365 -69.05502319 68.80618286 C-68.37025909 68.12860931 -67.685495 67.45103577 -66.97998047 66.75292969 C-66.25792419 66.03058136 -65.53586792 65.30823303 -64.79193115 64.56399536 C-62.40506011 62.17851721 -60.0111838 59.80020061 -57.6171875 57.421875 C-55.96051221 55.76892998 -54.30427805 54.11554273 -52.64846802 52.46173096 C-48.28974083 48.11063912 -43.92504076 43.76558687 -39.55908203 39.42175293 C-35.10478495 34.98791629 -30.65614582 30.54841091 -26.20703125 26.109375 C-17.47689145 17.4006834 -8.74043306 8.69835992 0 0 Z " fill="#3EA0E6" transform="translate(768,696)"/>
<path d="M0 0 C8.53105844 5.4338542 15.3345743 12.97382384 22.40394592 20.12313843 C23.87016014 21.59495606 25.33704419 23.06610668 26.80456543 24.53662109 C30.6432786 28.38672424 34.47289189 32.24575408 38.3006134 36.10678101 C42.21691995 40.053915 46.1418579 43.99244588 50.0660553 47.93173218 C57.74830486 55.64604259 65.4209584 63.36982116 73.08753967 71.09970093 C71.7538155 74.06125091 70.29596043 76.13946887 67.9997406 78.42800903 C67.36592972 79.06456924 66.73211884 79.70112946 66.07910156 80.35697937 C65.38498672 81.04390366 64.69087189 81.73082794 63.97572327 82.43856812 C63.24391342 83.17067001 62.51210358 83.90277191 61.75811768 84.65705872 C59.33878138 87.07500201 56.91243854 89.48578462 54.48597717 91.89657593 C52.80688165 93.57194122 51.12822724 95.24774871 49.44999695 96.92398071 C45.03208605 101.33425595 40.60820186 105.73849206 36.18305969 110.14151001 C31.66843981 114.63567013 27.15947734 119.13549831 22.65003967 123.63485718 C13.80141022 132.46203789 4.94646192 141.28285091 -3.91246033 150.09970093 C-8.58678127 146.19035169 -13.02883708 142.13214711 -17.33506775 137.82235718 C-18.23404533 136.92841751 -18.23404533 136.92841751 -19.15118408 136.01641846 C-21.10938967 134.06762566 -23.06388471 132.11516554 -25.01792908 130.16220093 C-26.38832508 128.7950225 -27.75879444 127.42791759 -29.1293335 126.06088257 C-31.99135518 123.20482667 -34.85132473 120.34673369 -37.71006775 117.48739624 C-41.36662925 113.83073287 -45.03003831 110.18101359 -48.69523144 106.53300476 C-51.52369856 103.71566997 -54.34759501 100.89378786 -57.17023659 98.07061768 C-58.51897567 96.72305539 -59.86932912 95.37710681 -61.22134972 94.03283691 C-63.11171303 92.1523052 -64.99559489 90.2655017 -66.8780365 88.37704468 C-67.70958755 87.55392288 -67.70958755 87.55392288 -68.55793762 86.71417236 C-73.93831361 81.29014976 -78.01687967 76.18495141 -78.16246033 68.28720093 C-78.18824158 67.45575562 -78.21402283 66.6243103 -78.24058533 65.76766968 C-77.36081094 58.61426599 -72.61097098 54.45048018 -67.66246033 49.72470093 C-66.36302436 48.46953432 -65.06614381 47.21171676 -63.77183533 45.95126343 C-63.19916931 45.40292847 -62.6265033 44.85459351 -62.03648376 44.28964233 C-60.15450602 42.34925838 -58.38517442 40.36287527 -56.61582947 38.32064819 C-51.23768632 32.13324599 -45.4587276 26.34605916 -39.68907166 20.5262146 C-38.2962889 19.11682979 -36.90889913 17.70209506 -35.52696228 16.28207397 C-13.49382418 -6.35227681 -13.49382418 -6.35227681 0 0 Z " fill="#3EA0E6" transform="translate(242.91246032714844,169.90029907226563)"/>
<path d="M0 0 C2.94209835 1.32710259 5.01614431 2.76789991 7.29034424 5.04983521 C7.9184903 5.67523193 8.54663635 6.30062866 9.19381714 6.94497681 C10.21017746 7.97212296 10.21017746 7.97212296 11.24707031 9.02001953 C11.96941864 9.74207581 12.69176697 10.46413208 13.43600464 11.20806885 C15.82148279 13.59493989 18.19979939 15.9888162 20.578125 18.3828125 C22.23107002 20.03948779 23.88445727 21.69572195 25.53826904 23.35153198 C29.88936088 27.71025917 34.23441313 32.07495924 38.57824707 36.44091797 C43.01208371 40.89521505 47.45158909 45.34385418 51.890625 49.79296875 C60.5993166 58.52310855 69.30164008 67.25956694 78 76 C76.73599422 78.75972801 75.4402644 80.81120138 73.30097961 82.9597168 C72.75301224 83.51476898 72.20504486 84.06982117 71.64047241 84.64169312 C71.04151154 85.23817657 70.44255066 85.83466003 69.82543945 86.44921875 C69.19265579 87.08711334 68.55987213 87.72500793 67.90791321 88.38223267 C65.81485481 90.48918865 63.71445021 92.58863431 61.61328125 94.6875 C60.15295211 96.15171677 58.69284684 97.61615684 57.23295593 99.08081055 C54.17050848 102.15072117 51.10421201 105.21672523 48.03540039 108.28027344 C44.11070032 112.19918741 40.19746251 116.12932685 36.28728962 120.06272888 C33.27357783 123.09120346 30.25293427 126.11268963 27.23027611 129.13223267 C25.78510607 130.57791491 24.34228773 132.0259521 22.90191078 133.47640991 C20.88223816 135.50847456 18.85317889 137.53069649 16.8215332 139.55078125 C16.23269348 140.14726471 15.64385376 140.74374817 15.03717041 141.35830688 C9.49697006 146.82936826 3.74848817 150.87127387 -4.27612305 151.1472168 C-16.03712516 150.51157242 -24.58148597 139.01074915 -32.1875 131.1875 C-33.52687912 129.83157933 -34.86736671 128.47675266 -36.20898438 127.12304688 C-41.77701984 121.48396336 -47.27013766 115.82858829 -52.40893555 109.79174805 C-56.38315829 105.31625001 -60.80994049 101.2371916 -65.12304688 97.09179688 C-66.21649414 96.01961914 -66.21649414 96.01961914 -67.33203125 94.92578125 C-68.31780151 93.97312378 -68.31780151 93.97312378 -69.32348633 93.0012207 C-72.31761061 89.42719467 -73.30070432 85.78640281 -73.375 81.1875 C-73.40335937 80.39730469 -73.43171875 79.60710937 -73.4609375 78.79296875 C-72.22136747 71.28201475 -67.6271966 66.04944009 -62.328125 60.90234375 C-61.68687683 60.2643837 -61.04562866 59.62642365 -60.38494873 58.96913147 C-58.34919507 56.9490025 -56.29970764 54.94345798 -54.25 52.9375 C-52.88975711 51.58876536 -51.53037431 50.23916271 -50.171875 48.88867188 C-48.84972462 47.57995456 -47.52683162 46.27198698 -46.203125 44.96484375 C-45.29956268 44.07236183 -45.29956268 44.07236183 -44.37774658 43.16184998 C-41.33613587 40.18673439 -38.24222639 37.31319542 -35.02246094 34.53125 C-30.98455727 31.0322953 -27.19904652 27.32719038 -23.4375 23.53515625 C-22.76074219 22.85698349 -22.08398438 22.17881073 -21.38671875 21.48008728 C-19.25542325 19.34325695 -17.12765782 17.20295177 -15 15.0625 C-13.54320221 13.60067877 -12.08617299 12.13908813 -10.62890625 10.67773438 C-7.08326027 7.121146 -3.54077261 3.56143984 0 0 Z " fill="#3EA0E6" transform="translate(75,533)"/>
<path d="M0 0 C7.37192263 4.56905621 13.21308742 11.00669765 18.81884766 17.54125977 C22.65741777 21.93321072 26.74815669 26.01487218 30.921875 30.0859375 C32.48090735 31.62260202 34.03948792 33.159725 35.59765625 34.69726562 C38.02458086 37.08701579 40.45440047 39.47352324 42.89208984 41.85229492 C45.26538123 44.17103062 47.62571389 46.50233343 49.984375 48.8359375 C50.71251404 49.54029434 51.44065308 50.24465118 52.19085693 50.97035217 C56.80660375 55.56206507 59.891388 59.52372028 61.0859375 66.08203125 C60.88548826 81.58343912 44.99193929 92.78481449 34.82421875 103.03125 C34.17551126 103.68528116 33.52680378 104.33931232 32.85843849 105.01316261 C29.43995152 108.45813396 26.01796712 111.89959102 22.59350586 115.33862305 C19.76519102 118.18039004 16.94437133 121.02930189 14.12963867 123.88452148 C10.71324775 127.35001803 7.284941 130.80327645 3.84748268 134.24787331 C2.54304854 135.55903514 1.24288494 136.87445984 -0.05291176 138.19415855 C-1.8549551 140.0275986 -3.67189296 141.84486914 -5.4934082 143.65893555 C-6.02593201 144.20786469 -6.55845581 144.75679382 -7.1071167 145.32235718 C-8.61421204 146.804245 -8.61421204 146.804245 -11.3125 148.89453125 C-14.65379282 148.58115366 -16.32115957 147.25831131 -18.64080811 144.92698669 C-19.27736832 144.29455048 -19.91392853 143.66211426 -20.56977844 143.01051331 C-21.25670273 142.31280319 -21.94362701 141.61509308 -22.65136719 140.89624023 C-23.38346909 140.16457642 -24.11557098 139.4329126 -24.86985779 138.67907715 C-27.29020784 136.25663552 -29.69975619 133.82373748 -32.109375 131.390625 C-33.78452219 129.7098832 -35.46033254 128.02980212 -37.13677979 126.35035706 C-41.54927959 121.92639798 -45.9526967 117.49350393 -50.35430908 113.05871582 C-54.84666087 108.53568673 -59.34750767 104.02112881 -63.84765625 99.50585938 C-72.67762478 90.64370756 -81.49831683 81.7723817 -90.3125 72.89453125 C-89.37535931 71.79042847 -88.43664837 70.68765841 -87.49729919 69.58543396 C-86.71344172 68.66405718 -86.71344172 68.66405718 -85.91374874 67.72406673 C-83.4930224 64.95822241 -80.90400289 62.38140066 -78.28515625 59.8046875 C-77.73315048 59.25646835 -77.18114471 58.70824921 -76.6124115 58.14341736 C-74.28524303 55.8323631 -71.95209352 53.52738359 -69.61938477 51.22192383 C-64.00266217 45.66501221 -58.43350808 40.1520947 -53.30493164 34.13598633 C-48.71178022 28.96876133 -43.8082078 24.08559925 -38.94360352 19.17553711 C-37.64782288 17.86315433 -36.35743688 16.54542319 -35.07250977 15.22241211 C-13.85116488 -6.62141835 -13.85116488 -6.62141835 0 0 Z " fill="#3E9FE6" transform="translate(619.3125,7.10546875)"/>
<path d="M0 0 C3.83053102 2.36324286 6.72218967 4.92730703 9.62329102 8.35302734 C14.10037089 13.50336647 18.95048383 18.24376046 23.8203125 23.01953125 C24.79013236 23.977292 25.75942166 24.93559024 26.72821045 25.89439392 C30.80375254 29.92762623 34.88219296 33.95779505 38.9765625 37.97192383 C41.49614141 40.44280234 44.00569277 42.92349426 46.50911713 45.41073418 C47.91504945 46.80208213 49.33159884 48.18267562 50.74835205 49.56300354 C56.57090429 55.36160437 60.12624356 59.44087956 61.0546875 67.796875 C60.65003281 76.48504552 54.73955147 82.28732035 48.81640625 88.015625 C48.06180618 88.7621936 47.30720612 89.50876221 46.52973938 90.2779541 C44.13073161 92.64814138 41.71846852 95.004243 39.3046875 97.359375 C36.90425845 99.71703848 34.50675613 102.07760313 32.11177063 104.4407959 C30.6262306 105.90495578 29.13718331 107.36556929 27.64396667 108.82189941 C23.66536227 112.72532801 19.91029889 116.73696216 16.27409363 120.96054077 C12.12868899 125.71122404 7.63420259 130.1468059 3.20043945 134.6262207 C2.00922264 135.83418977 0.82342314 137.04752259 -0.35717773 138.26586914 C-2.07650997 140.03963309 -3.81142244 141.79667876 -5.55078125 143.55078125 C-6.07689499 144.09956436 -6.60300873 144.64834747 -7.14506531 145.21376038 C-8.65307617 146.71313477 -8.65307617 146.71313477 -11.3828125 148.859375 C-14.72416123 148.55225994 -16.39259184 147.22202966 -18.71112061 144.89183044 C-19.34768082 144.25939423 -19.98424103 143.62695801 -20.64009094 142.97535706 C-21.32701523 142.27764694 -22.01393951 141.57993683 -22.72167969 140.86108398 C-23.45378159 140.12942017 -24.18588348 139.39775635 -24.94017029 138.6439209 C-27.36052034 136.22147927 -29.77006869 133.78858123 -32.1796875 131.35546875 C-33.85483469 129.67472695 -35.53064504 127.99464587 -37.20709229 126.31520081 C-41.61959209 121.89124173 -46.0230092 117.45834768 -50.42462158 113.02355957 C-54.91697337 108.50053048 -59.41782017 103.98597256 -63.91796875 99.47070312 C-72.74793728 90.60855131 -81.56862933 81.73722545 -90.3828125 72.859375 C-88.438113 68.61892742 -85.51842799 65.69224322 -82.25585938 62.42602539 C-81.3139122 61.47159294 -81.3139122 61.47159294 -80.35293579 60.49787903 C-78.27459885 58.39544424 -76.18867916 56.30074842 -74.1015625 54.20703125 C-72.64856567 52.74506485 -71.19564524 51.28302251 -69.74279785 49.82090759 C-66.69326185 46.75487742 -63.63935424 43.69327361 -60.58300781 40.6340332 C-56.68195402 36.72760885 -52.79728768 32.80531766 -48.91649628 28.8787775 C-45.91882947 25.85124766 -42.90985219 22.83515193 -39.89772034 19.82201958 C-38.46161336 18.38172531 -37.02959915 16.93733739 -35.60191345 15.48869514 C-13.80105458 -6.60640646 -13.80105458 -6.60640646 0 0 Z " fill="#3E9FE6" transform="translate(945.3828125,333.140625)"/>
<path d="M0 0 C2.94209835 1.32710259 5.01614431 2.76789991 7.29034424 5.04983521 C7.9184903 5.67523193 8.54663635 6.30062866 9.19381714 6.94497681 C10.21017746 7.97212296 10.21017746 7.97212296 11.24707031 9.02001953 C11.96941864 9.74207581 12.69176697 10.46413208 13.43600464 11.20806885 C15.82148279 13.59493989 18.19979939 15.9888162 20.578125 18.3828125 C22.23107002 20.03948779 23.88445727 21.69572195 25.53826904 23.35153198 C29.88936088 27.71025917 34.23441313 32.07495924 38.57824707 36.44091797 C43.01208371 40.89521505 47.45158909 45.34385418 51.890625 49.79296875 C60.5993166 58.52310855 69.30164008 67.25956694 78 76 C76.22382954 79.81951683 73.81046747 82.46366068 70.8359375 85.39453125 C70.32503571 85.90497482 69.81413391 86.4154184 69.28775024 86.94132996 C68.20575408 88.02031057 67.12133401 89.09686524 66.03466797 90.17114258 C64.39631724 91.79141795 62.76593063 93.41936932 61.13671875 95.04882812 C60.07859182 96.10203171 59.02001159 97.15478011 57.9609375 98.20703125 C57.48353119 98.68332474 57.00612488 99.15961823 56.51425171 99.65034485 C53.81339473 102.31480624 51.04041204 104.84747636 48.16235352 107.32006836 C43.68003752 111.20990385 39.56823271 115.41126185 35.44140625 119.671875 C33.82302707 121.32236156 32.2038627 122.97207851 30.58398438 124.62109375 C28.0642559 127.1902576 25.54944364 129.76349872 23.04760742 132.35009766 C20.60944668 134.86723199 18.15237047 137.36455661 15.69140625 139.859375 C14.95362442 140.6312616 14.21584259 141.40314819 13.45570374 142.19842529 C8.09443794 147.58731966 2.96277898 150.8190291 -4.78515625 151.1015625 C-9.24567352 150.16814379 -12.4032307 149.00113911 -15.796875 145.90625 C-16.82760132 144.96773193 -16.82760132 144.96773193 -17.87915039 144.01025391 C-21.37871264 140.69318293 -24.79923846 137.30541216 -28.1875 133.875 C-28.87263672 133.18535156 -29.55777344 132.49570312 -30.26367188 131.78515625 C-31.5405032 130.4997226 -32.81629081 129.21325055 -34.09057617 127.92529297 C-38.06375766 123.91909054 -42.06682572 119.94453119 -46.0891571 115.98779297 C-48.75981539 113.35740496 -51.42241993 110.71892552 -54.0847168 108.08007812 C-55.48928953 106.69067145 -56.89653147 105.30395805 -58.30639648 103.91992188 C-60.35070779 101.91200992 -62.38516484 99.89455295 -64.41796875 97.875 C-65.04817429 97.26027832 -65.67837982 96.64555664 -66.3276825 96.01220703 C-70.85798554 91.48366075 -73.26864968 87.77058505 -73.375 81.1875 C-73.40335937 80.39730469 -73.43171875 79.60710937 -73.4609375 78.79296875 C-72.28173444 71.64779764 -68.05115891 66.4625629 -62.984375 61.55859375 C-62.40971497 60.98722183 -61.83505493 60.41584991 -61.24298096 59.8271637 C-59.42120691 58.02098925 -57.58575277 56.22945218 -55.75 54.4375 C-54.53428699 53.23329881 -53.31943591 52.02822681 -52.10546875 50.82226562 C-50.9200362 49.65026702 -49.73386176 48.47901824 -48.546875 47.30859375 C-48.01012146 46.77922714 -47.47336792 46.24986053 -46.92034912 45.70445251 C-44.04137094 42.89558665 -41.10045095 40.19582072 -38.05688477 37.56567383 C-34.0466263 34.08594968 -30.28073325 30.40913879 -26.54296875 26.640625 C-25.87332596 25.96956726 -25.20368317 25.29850952 -24.51374817 24.6071167 C-22.40260875 22.49044376 -20.29499404 20.37030188 -18.1875 18.25 C-16.7560935 16.81356874 -15.32445478 15.37736885 -13.89257812 13.94140625 C-10.75417885 10.79324505 -7.61799007 7.64290146 -4.48381042 4.49053955 C-2.99146383 2.99142512 -1.49630074 1.49516683 0 0 Z " fill="#3EA0E6" transform="translate(401,859)"/>
</svg>
