<?xml version="1.0" encoding="UTF-8"?>
<svg version="1.1" xmlns="http://www.w3.org/2000/svg" width="152" height="141">
<path d="M0 0 C7.26 0 14.52 0 22 0 C22.556875 2.145 23.11375 4.29 23.6875 6.5 C33.23122582 42.40559978 47.89055662 76.82154891 81 97 C101.08907032 108.49790645 121.27892113 111.15219855 144 112 C144 119.59 144 127.18 144 135 C107.19602283 135.77754881 74.04002863 125.88938911 47 100 C46.20207031 99.27683594 45.40414062 98.55367188 44.58203125 97.80859375 C35.91465074 89.66483877 29.56528414 79.84792622 23 70 C22.67 92.44 22.34 114.88 22 138 C14.74 138 7.48 138 0 138 C0 92.46 0 46.92 0 0 Z " fill="#3DA0E3" transform="translate(4,1)"/>
<path d="M0 0 C7.92 0 15.84 0 24 0 C25.31163056 2.62326111 25.47082894 5.2391405 25.84863281 8.11914062 C27.85044983 22.9222025 32.059392 35.8194469 41 48 C41.68835938 48.96292969 41.68835938 48.96292969 42.390625 49.9453125 C51.84307205 62.05965556 65.71501182 67.10409413 80 71 C80 47.57 80 24.14 80 0 C87.26 0 94.52 0 102 0 C102 31.68 102 63.36 102 96 C77.03806251 96 54.567401 92.61939331 35 76 C34.34644531 75.49082031 33.69289062 74.98164062 33.01953125 74.45703125 C13.00168201 58.27493756 3.19854903 30.80278369 0 6 C0 4.02 0 2.04 0 0 Z " fill="#000000" transform="translate(46,1)"/>
<path d="M0 0 C3.4225892 1.3552062 5.73711141 4.08862302 8.26806641 6.67407227 C8.82236328 7.21676758 9.37666016 7.75946289 9.94775391 8.31860352 C14.01806641 12.41899222 14.01806641 12.41899222 14.01806641 15.79907227 C12.44384766 17.44750977 12.44384766 17.44750977 10.33056641 19.17407227 C7.79561459 21.27535508 5.45764883 23.34179795 3.26806641 25.79907227 C2.52556641 26.45907227 1.78306641 27.11907227 1.01806641 27.79907227 C-2.17309196 27.46423211 -3.80287508 26.3426653 -5.99755859 24.07641602 C-6.52607422 23.53823242 -7.05458984 23.00004883 -7.59912109 22.44555664 C-8.13794922 21.8815918 -8.67677734 21.31762695 -9.23193359 20.73657227 C-9.78623047 20.16874023 -10.34052734 19.6009082 -10.91162109 19.01586914 C-12.27527573 17.61694757 -13.62953776 16.20888113 -14.98193359 14.79907227 C-13.36132327 10.80474446 -10.58854186 8.00348906 -7.60693359 4.98657227 C-7.12482422 4.4715918 -6.64271484 3.95661133 -6.14599609 3.42602539 C-2.5188237 -0.25535747 -2.5188237 -0.25535747 0 0 Z " fill="#3DA0E3" transform="translate(99.98193359375,8.200927734375)"/>
</svg>
