<?xml version="1.0" encoding="UTF-8"?>
<svg version="1.1" xmlns="http://www.w3.org/2000/svg" width="517" height="148">
<path d="M0 0 C3.63 0 7.26 0 11 0 C14.63 10.23 18.26 20.46 22 31 C24.02796578 27.95805132 25.10439247 25.26506378 26.34765625 21.8359375 C26.78787109 20.63195312 27.22808594 19.42796875 27.68164062 18.1875 C28.14227236 16.91679178 28.6025547 15.64595685 29.0625 14.375 C29.96675859 11.88158189 30.87498483 9.38971434 31.78515625 6.8984375 C32.38662476 5.23820557 32.38662476 5.23820557 33.00024414 3.54443359 C34 1 34 1 35 0 C36.66429051 -0.09823937 38.33281931 -0.12973631 40 -0.125 C41.36125 -0.12886719 41.36125 -0.12886719 42.75 -0.1328125 C45 0 45 0 46 1 C46.09831146 2.49870048 46.12798456 4.00198539 46.12939453 5.50390625 C46.13254669 6.46159912 46.13569885 7.41929199 46.13894653 8.40600586 C46.1369223 9.44764893 46.13489807 10.48929199 46.1328125 11.5625 C46.13376923 12.62412354 46.13472595 13.68574707 46.13571167 14.77954102 C46.13639364 17.02913472 46.13453819 19.27873037 46.13037109 21.52832031 C46.1250231 24.98507071 46.13031554 28.44169117 46.13671875 31.8984375 C46.13605797 34.07812529 46.13477682 36.257813 46.1328125 38.4375 C46.13483673 39.47914307 46.13686096 40.52078613 46.13894653 41.59399414 C46.13421829 43.03053345 46.13421829 43.03053345 46.12939453 44.49609375 C46.12859894 45.34357178 46.12780334 46.1910498 46.12698364 47.06420898 C46 49 46 49 45 50 C42.36 50 39.72 50 37 50 C36.67 40.76 36.34 31.52 36 22 C33.08013323 29.85228157 33.08013323 29.85228157 30.16625977 37.70678711 C29.80330811 38.6788208 29.44035645 39.65085449 29.06640625 40.65234375 C28.69459229 41.65257568 28.32277832 42.65280762 27.93969727 43.68334961 C27 46 27 46 26 47 C23.03 47 20.06 47 17 47 C14.03 38.75 11.06 30.5 8 22 C7.67 31.24 7.34 40.48 7 50 C4.36 50 1.72 50 -1 50 C-1.02526838 43.03996553 -1.04283222 36.0799428 -1.05493164 29.11987305 C-1.05997341 26.75007688 -1.06680665 24.38028385 -1.07543945 22.01049805 C-1.0875119 18.61245961 -1.09322971 15.21446215 -1.09765625 11.81640625 C-1.10281754 10.74975235 -1.10797882 9.68309845 -1.11329651 8.5841217 C-1.11337204 7.60318039 -1.11344757 6.62223907 -1.11352539 5.61157227 C-1.115746 4.74331314 -1.11796661 3.87505402 -1.12025452 2.98048401 C-1 1 -1 1 0 0 Z " fill="#FEFEFE" transform="translate(339,48)"/>
<path d="M0 0 C3.18039018 0.04538349 4.14751328 0.4728148 6.39990234 2.78125 C8.44541422 5.70086295 10.29419689 8.67960506 12.10546875 11.75 C12.74291016 12.77996094 13.38035156 13.80992188 14.03710938 14.87109375 C15.85511085 17.8166689 17.6370252 20.78193227 19.41796875 23.75 C21.0728942 26.4242524 22.74426612 29.08743673 24.41796875 31.75 C24.4430249 30.84644775 24.46808105 29.94289551 24.49389648 29.01196289 C24.58884192 25.6703572 24.68808496 22.32893748 24.7902832 18.98754883 C24.83368505 17.5393576 24.87535619 16.09111346 24.9152832 14.64282227 C24.97285937 12.56510441 25.03658903 10.48765427 25.1015625 8.41015625 C25.13822021 7.15855713 25.17487793 5.90695801 25.21264648 4.61743164 C25.41796875 1.75 25.41796875 1.75 26.41796875 0.75 C29.91796875 0.625 29.91796875 0.625 33.41796875 0.75 C35.01848539 2.35051664 34.54528347 4.03846122 34.54736328 6.25390625 C34.55051544 7.21159912 34.5536676 8.16929199 34.55691528 9.15600586 C34.55489105 10.19764893 34.55286682 11.23929199 34.55078125 12.3125 C34.55173798 13.37412354 34.5526947 14.43574707 34.55368042 15.52954102 C34.55436239 17.77913472 34.55250694 20.02873037 34.54833984 22.27832031 C34.54299185 25.73507071 34.54828429 29.19169117 34.5546875 32.6484375 C34.55402672 34.82812529 34.55274557 37.007813 34.55078125 39.1875 C34.55280548 40.22914307 34.55482971 41.27078613 34.55691528 42.34399414 C34.55218704 43.78053345 34.55218704 43.78053345 34.54736328 45.24609375 C34.54656769 46.09357178 34.54577209 46.9410498 34.54495239 47.81420898 C34.41796875 49.75 34.41796875 49.75 33.41796875 50.75 C30.30458472 51.35790528 27.52239535 51.42778233 24.41796875 50.75 C21.89270797 48.61779363 20.49270913 46.00113307 18.91796875 43.125 C17.99513888 41.57140829 17.07195582 40.01802632 16.1484375 38.46484375 C15.69645996 37.67835449 15.24448242 36.89186523 14.77880859 36.08154297 C12.71209921 32.54062539 10.46990814 29.12053021 8.23046875 25.6875 C6.97234375 23.728125 5.71421875 21.76875 4.41796875 19.75 C4.08796875 29.98 3.75796875 40.21 3.41796875 50.75 C0.77796875 50.75 -1.86203125 50.75 -4.58203125 50.75 C-4.60729963 43.78996553 -4.62486347 36.8299428 -4.63696289 29.86987305 C-4.64200466 27.50007688 -4.6488379 25.13028385 -4.6574707 22.76049805 C-4.66954315 19.36245961 -4.67526096 15.96446215 -4.6796875 12.56640625 C-4.68484879 11.49975235 -4.69001007 10.43309845 -4.69532776 9.3341217 C-4.69540329 8.35318039 -4.69547882 7.37223907 -4.69555664 6.36157227 C-4.69777725 5.49331314 -4.69999786 4.62505402 -4.70228577 3.73048401 C-4.49216546 0.26999104 -3.57672271 0.74888851 0 0 Z " fill="#50AAE6" transform="translate(102.58203125,47.25)"/>
<path d="M0 0 C7.19369638 7.11938134 8.86478781 15.15409409 9 25 C8.52217079 32.40104354 6.19215719 37.68509678 1 43 C-5.9669952 48.79183938 -13.2808722 48.66772455 -22 48 C-27.95467646 46.53236389 -31.25190353 43.05463591 -34.7734375 38.1953125 C-39.21186548 30.25137452 -39.21353794 20.80654861 -37.3828125 12.046875 C-34.83280296 4.69021031 -30.02794677 0.01397339 -23.125 -3.4375 C-14.84039104 -4.92872961 -7.31426212 -4.52727604 0 0 Z M-26 10 C-29.27488405 16.37510762 -29.23499808 24.7857282 -27.2421875 31.5859375 C-25.52575906 35.22152214 -23.68186227 38.15906886 -20 40 C-16.14844253 41.19826232 -14.26165737 41.08120401 -10.375 39.875 C-5.59809552 37.22116418 -3.67022054 34.77608443 -1.75 29.6875 C-0.24053451 22.26596135 -0.58470658 15.83058685 -4 9 C-8.03231485 5.06603429 -11.12790728 3.52359735 -16.83203125 3.5859375 C-20.79813215 4.34342704 -23.52299813 6.91378956 -26 10 Z " fill="#51AAE6" transform="translate(183,51)"/>
<path d="M0 0 C5.72280844 3.8518903 8.56954706 8.41497203 10.58984375 14.890625 C12.08830035 22.5969732 11.68661622 30.9915211 8 38 C4.96209074 42.47444 1.41721183 46.77661758 -3.85546875 48.59765625 C-11.10722453 49.95818602 -18.81553782 50.22627887 -25.2890625 46.3203125 C-31.2357771 41.7312953 -34.58577354 36.38933324 -36 29 C-36.93749486 20.10681961 -35.90299648 11.21812158 -30.1875 4.0625 C-22.21456735 -4.3456796 -9.97285952 -5.22889886 0 0 Z M-21 8 C-26.13602243 14.70536262 -26.80526677 20.71246285 -26 29 C-24.74639938 33.55792835 -23.24750954 36.97640243 -19.5625 40 C-14.2550403 42.07120378 -11.16119505 42.26347268 -5.8671875 40.0859375 C-2.37998279 38.05781426 -0.61352018 34.94419571 0.578125 31.16796875 C1.98034779 23.96210162 1.78898748 17.07233402 -1.83203125 10.62109375 C-3.99422668 7.62005327 -5.43395766 6.18868078 -9 5 C-14.00020732 4.62961427 -17.05280378 4.79957063 -21 8 Z " fill="#50AAE6" transform="translate(233,50)"/>
<path d="M0 0 C1.19302734 -0.01836914 1.19302734 -0.01836914 2.41015625 -0.03710938 C8.82127092 -0.0529003 14.25474081 0.38302409 19.3125 4.6875 C21.88610746 8.17294851 22.02158942 11.48278314 21.8046875 15.71875 C20.89781021 20.92917224 18.14777851 24.56606504 14.375 28.1875 C14.85912354 28.89096558 14.85912354 28.89096558 15.35302734 29.60864258 C16.81890884 31.73894105 18.28445783 33.86946807 19.75 36 C20.25789063 36.73798828 20.76578125 37.47597656 21.2890625 38.23632812 C21.77890625 38.94853516 22.26875 39.66074219 22.7734375 40.39453125 C23.22380371 41.0491333 23.67416992 41.70373535 24.13818359 42.37817383 C27.375 47.11327971 27.375 47.11327971 27.375 50.1875 C23.29707539 51.48794053 20.42386923 51.66867479 16.375 50.1875 C12.00272629 45.72348269 4.375 36.66148469 4.375 30.1875 C3.055 30.1875 1.735 30.1875 0.375 30.1875 C0.38023682 30.75782959 0.38547363 31.32815918 0.39086914 31.91577148 C0.41158221 34.48550323 0.4246419 37.05521747 0.4375 39.625 C0.44587891 40.52283203 0.45425781 41.42066406 0.46289062 42.34570312 C0.46611328 43.19970703 0.46933594 44.05371094 0.47265625 44.93359375 C0.47789307 45.72435303 0.48312988 46.5151123 0.48852539 47.32983398 C0.375 49.1875 0.375 49.1875 -0.625 50.1875 C-2.4375 50.3203125 -2.4375 50.3203125 -4.625 50.3125 C-5.346875 50.31507812 -6.06875 50.31765625 -6.8125 50.3203125 C-8.625 50.1875 -8.625 50.1875 -9.625 49.1875 C-9.72331146 47.68879952 -9.75298456 46.18551461 -9.75439453 44.68359375 C-9.75754669 43.72590088 -9.76069885 42.76820801 -9.76394653 41.78149414 C-9.7619223 40.73985107 -9.75989807 39.69820801 -9.7578125 38.625 C-9.75876923 37.56337646 -9.75972595 36.50175293 -9.76071167 35.40795898 C-9.76139364 33.15836528 -9.75953819 30.90876963 -9.75537109 28.65917969 C-9.7500231 25.20242929 -9.75531554 21.74580883 -9.76171875 18.2890625 C-9.76105797 16.10937471 -9.75977682 13.929687 -9.7578125 11.75 C-9.75983673 10.70835693 -9.76186096 9.66671387 -9.76394653 8.59350586 C-9.76079437 7.63581299 -9.75764221 6.67812012 -9.75439453 5.69140625 C-9.75359894 4.84392822 -9.75280334 3.9964502 -9.75198364 3.12329102 C-9.43394573 -1.72501009 -3.70423135 0.00291672 0 0 Z M0.375 8.1875 C0.375 12.8075 0.375 17.4275 0.375 22.1875 C6.06415881 22.70199576 6.06415881 22.70199576 9.1875 20.5 C11.6295799 17.91837268 12.375 16.72907234 12.375 13.1875 C11.64429996 10.76567235 11.64429996 10.76567235 9.375 9.1875 C6.34175776 8.54327156 3.48943273 8.36804682 0.375 8.1875 Z " fill="#53ABE6" transform="translate(261.625,47.8125)"/>
<path d="M0 0 C2.97 0 5.94 0 9 0 C14.34269319 12.98292175 19.67508941 25.97206555 24.75 39.0625 C25.09675781 39.94123779 25.44351563 40.81997559 25.80078125 41.7253418 C26.10886719 42.52883057 26.41695312 43.33231934 26.734375 44.16015625 C27.00475586 44.85761963 27.27513672 45.55508301 27.55371094 46.27368164 C28 48 28 48 27 50 C24.03 50 21.06 50 18 50 C17.16209211 48.21046815 16.32980604 46.41830305 15.5 44.625 C15.0359375 43.62726563 14.571875 42.62953125 14.09375 41.6015625 C13 39 13 39 13 37 C7.06 37 1.12 37 -5 37 C-5.45375 38.4025 -5.9075 39.805 -6.375 41.25 C-7.36783204 44.31875358 -8.49439503 47.14589666 -10 50 C-12.64 50 -15.28 50 -18 50 C-19.119289 46.642133 -18.95718485 46.21182921 -17.69238281 43.09863281 C-17.38165833 42.32062317 -17.07093384 41.54261353 -16.75079346 40.74102783 C-16.40506287 39.9035199 -16.05933228 39.06601196 -15.703125 38.203125 C-15.17897003 36.90263214 -15.17897003 36.90263214 -14.64422607 35.5758667 C-13.52164114 32.7969086 -12.38593414 30.02352447 -11.25 27.25 C-10.49915005 25.39617736 -9.74913996 23.54201431 -9 21.6875 C-6.06223816 14.43092708 -3.1060116 7.18641104 0 0 Z M3 16 C1.35 20.29 -0.3 24.58 -2 29 C1.63 29 5.26 29 9 29 C8.31197805 25.55989025 7.67866547 22.87135924 6.4375 19.6875 C5.963125 18.470625 5.48875 17.25375 5 16 C4.34 16 3.68 16 3 16 Z " fill="#51AAE6" transform="translate(28,48)"/>
<path d="M0 0 C3.6694952 -1.05400394 6.3627535 -1.25337548 10 0 C14.2220485 4.27163632 17.08887031 9.79712991 20 15 C22.7359024 11.69907427 25.0196278 8.3416292 27.25 4.6875 C30.31649716 0.19750958 30.31649716 0.19750958 33.23046875 -0.64453125 C35.4375 -0.625 35.4375 -0.625 39 0 C39 4.34900008 38.47966909 5.28049637 36.15625 8.765625 C35.27646484 10.09980469 35.27646484 10.09980469 34.37890625 11.4609375 C33.75886719 12.38132812 33.13882813 13.30171875 32.5 14.25 C31.87996094 15.18585937 31.25992188 16.12171875 30.62109375 17.0859375 C29.08879534 19.39617202 27.54824647 21.70043588 26 24 C30.045905 31.04651539 34.1998772 37.96509093 38.71484375 44.72265625 C40 47 40 47 40 50 C36.01620804 51.00525592 32.93748403 51.29056353 29 50 C25.83007554 46.5988177 23.86277762 42.39588681 21.77734375 38.28125 C21.19082031 37.1984375 20.60429687 36.115625 20 35 C19.34 35 18.68 35 18 35 C15.99699894 38.18056879 14.05601614 41.37265532 12.24804688 44.66796875 C10.96115807 46.77597693 9.8822637 48.39380164 8 50 C4.90143618 50.61881033 2.1127857 50.46172347 -1 50 C-0.38577581 47.01874539 0.55568279 44.81763832 2.1796875 42.25 C2.61410156 41.5590625 3.04851562 40.868125 3.49609375 40.15625 C4.17865234 39.08890625 4.17865234 39.08890625 4.875 38 C5.54595703 36.93265625 5.54595703 36.93265625 6.23046875 35.84375 C9.74522786 30.28649076 9.74522786 30.28649076 11.9453125 27.8125 C13.26084564 26.01628183 13.26084564 26.01628183 12.5390625 23.78515625 C9.92211605 19.04941305 6.86277263 14.61522719 3.8125 10.15039062 C3.08160156 9.05307617 3.08160156 9.05307617 2.3359375 7.93359375 C1.66377197 6.9444397 1.66377197 6.9444397 0.97802734 5.93530273 C0 4 0 4 0 0 Z " fill="#FEFEFE" transform="translate(466,48)"/>
<path d="M0 0 C1.16781006 0.00523682 2.33562012 0.01047363 3.53881836 0.01586914 C4.79887695 0.0190918 6.05893555 0.02231445 7.35717773 0.02563477 C8.6976732 0.03399136 10.03816799 0.04245632 11.37866211 0.05102539 C12.72306153 0.05603879 14.06746271 0.06060197 15.41186523 0.06469727 C18.71334151 0.07653051 22.01473014 0.09301568 25.31616211 0.11352539 C25.31616211 2.75352539 25.31616211 5.39352539 25.31616211 8.11352539 C19.04616211 8.11352539 12.77616211 8.11352539 6.31616211 8.11352539 C6.31616211 12.07352539 6.31616211 16.03352539 6.31616211 20.11352539 C11.59616211 20.11352539 16.87616211 20.11352539 22.31616211 20.11352539 C22.31616211 22.75352539 22.31616211 25.39352539 22.31616211 28.11352539 C17.03616211 28.11352539 11.75616211 28.11352539 6.31616211 28.11352539 C6.31616211 32.73352539 6.31616211 37.35352539 6.31616211 42.11352539 C8.46438477 42.09612305 8.46438477 42.09612305 10.65600586 42.07836914 C12.52188998 42.06899284 14.3877755 42.05989247 16.25366211 42.05102539 C17.19918945 42.04264648 18.1447168 42.03426758 19.11889648 42.02563477 C20.46757812 42.02080078 20.46757812 42.02080078 21.84350586 42.01586914 C22.67615967 42.01063232 23.50881348 42.00539551 24.36669922 42 C26.31616211 42.11352539 26.31616211 42.11352539 27.31616211 43.11352539 C27.35709148 45.44649972 27.35857934 47.78057764 27.31616211 50.11352539 C23.06201588 50.13818161 18.80790713 50.15636438 14.55371094 50.16845703 C13.10546138 50.1734964 11.65721694 50.18032792 10.20898438 50.18896484 C8.13141623 50.20104786 6.05391514 50.2067575 3.97631836 50.21118164 C2.72471924 50.21641846 1.47312012 50.22165527 0.18359375 50.22705078 C-2.68383789 50.11352539 -2.68383789 50.11352539 -3.68383789 49.11352539 C-3.78214935 47.61482491 -3.81182245 46.11154001 -3.81323242 44.60961914 C-3.81638458 43.65192627 -3.81953674 42.6942334 -3.82278442 41.70751953 C-3.82076019 40.66587646 -3.81873596 39.6242334 -3.81665039 38.55102539 C-3.81760712 37.48940186 -3.81856384 36.42777832 -3.81954956 35.33398438 C-3.82023153 33.08439068 -3.81837608 30.83479502 -3.81420898 28.58520508 C-3.80886099 25.12845468 -3.81415343 21.67183422 -3.82055664 18.21508789 C-3.81989586 16.0354001 -3.81861471 13.85571239 -3.81665039 11.67602539 C-3.81867462 10.63438232 -3.82069885 9.59273926 -3.82278442 8.51953125 C-3.81963226 7.56183838 -3.8164801 6.60414551 -3.81323242 5.61743164 C-3.81243683 4.76995361 -3.81164124 3.92247559 -3.81082153 3.04931641 C-3.60957825 -0.01851927 -3.10033252 0.13114297 0 0 Z " fill="#FEFEFE" transform="translate(436.683837890625,47.886474609375)"/>
<path d="M0 0 C23.52631579 0 23.52631579 0 28.9375 4.375 C31.82833521 8.26135463 31.63040162 12.47598584 31.421875 17.15625 C30.65419053 22.331012 28.20331741 24.91407941 24.4375 28.3125 C20.80780678 30.82536454 18.11597381 31.11838927 13.8125 31.0625 C12.224375 31.041875 10.63625 31.02125 9 31 C9 37.27 9 43.54 9 50 C6.03 50 3.06 50 0 50 C0 33.5 0 17 0 0 Z M9 8 C9 13.28 9 18.56 9 24 C11.1346875 23.5978125 11.1346875 23.5978125 13.3125 23.1875 C14.11300781 23.03667969 14.91351563 22.88585937 15.73828125 22.73046875 C18.31193721 21.89925344 19.39837924 21.16749308 21 19 C21.66373295 16.25657048 21.60259321 13.75471184 21 11 C17.0841063 7.20276974 14.78179389 8 9 8 Z " fill="#FEFEFE" transform="translate(396,48)"/>
<path d="M0 0 C0.721875 0.00257812 1.44375 0.00515625 2.1875 0.0078125 C2.909375 0.00523438 3.63125 0.00265625 4.375 0 C6.1875 0.1328125 6.1875 0.1328125 7.1875 1.1328125 C7.27621273 4.16259054 7.3026935 7.16948272 7.28515625 10.19921875 C7.2837413 11.10784164 7.28232635 12.01646454 7.28086853 12.95262146 C7.27525193 15.86688471 7.26269665 18.78107231 7.25 21.6953125 C7.24498714 23.66601452 7.24042386 25.63671774 7.23632812 27.60742188 C7.22527711 32.44924809 7.20800138 37.29101745 7.1875 42.1328125 C7.78812256 42.12757568 8.38874512 42.12233887 9.00756836 42.11694336 C11.71336838 42.09623236 14.41915177 42.08317125 17.125 42.0703125 C18.07052734 42.06193359 19.01605469 42.05355469 19.99023438 42.04492188 C21.33891602 42.04008789 21.33891602 42.04008789 22.71484375 42.03515625 C23.54749756 42.02991943 24.38015137 42.02468262 25.23803711 42.01928711 C27.1875 42.1328125 27.1875 42.1328125 28.1875 43.1328125 C28.22842937 45.46578683 28.22991723 47.79986475 28.1875 50.1328125 C23.93335377 50.15746872 19.67924502 50.17565149 15.42504883 50.18774414 C13.97679927 50.19278351 12.52855483 50.19961503 11.08032227 50.20825195 C9.00275412 50.22033497 6.92525303 50.22604461 4.84765625 50.23046875 C3.59605713 50.23570557 2.34445801 50.24094238 1.05493164 50.24633789 C-1.8125 50.1328125 -1.8125 50.1328125 -2.8125 49.1328125 C-2.91081146 47.63411202 -2.94048456 46.13082711 -2.94189453 44.62890625 C-2.94504669 43.67121338 -2.94819885 42.71352051 -2.95144653 41.72680664 C-2.9494223 40.68516357 -2.94739807 39.64352051 -2.9453125 38.5703125 C-2.94626923 37.50868896 -2.94722595 36.44706543 -2.94821167 35.35327148 C-2.94889364 33.10367778 -2.94703819 30.85408213 -2.94287109 28.60449219 C-2.9375231 25.14774179 -2.94281554 21.69112133 -2.94921875 18.234375 C-2.94855797 16.05468721 -2.94727682 13.8749995 -2.9453125 11.6953125 C-2.94733673 10.65366943 -2.94936096 9.61202637 -2.95144653 8.53881836 C-2.94829437 7.58112549 -2.94514221 6.62343262 -2.94189453 5.63671875 C-2.94109894 4.78924072 -2.94030334 3.9417627 -2.93948364 3.06860352 C-2.77252993 0.52349226 -2.54770486 0.18668527 0 0 Z " fill="#58ADE7" transform="translate(63.8125,47.8671875)"/>
<path d="M0 0 C0.721875 0.00257812 1.44375 0.00515625 2.1875 0.0078125 C2.909375 0.00523438 3.63125 0.00265625 4.375 0 C6.1875 0.1328125 6.1875 0.1328125 7.1875 1.1328125 C7.28069449 2.6676422 7.304958 4.20673332 7.30102539 5.74438477 C7.30094986 6.72532608 7.30087433 7.7062674 7.30079651 8.7169342 C7.29563522 9.7835881 7.29047394 10.850242 7.28515625 11.94921875 C7.2837413 13.03541 7.28232635 14.12160126 7.28086853 15.2407074 C7.27525048 18.72560325 7.26269492 22.21043592 7.25 25.6953125 C7.24498733 28.05143137 7.24042402 30.40755124 7.23632812 32.76367188 C7.22527519 38.55340714 7.20851951 44.34310531 7.1875 50.1328125 C5.70843108 50.15970466 4.22922517 50.17915871 2.75 50.1953125 C1.92628906 50.20691406 1.10257812 50.21851563 0.25390625 50.23046875 C-1.8125 50.1328125 -1.8125 50.1328125 -2.8125 49.1328125 C-2.91081146 47.63411202 -2.94048456 46.13082711 -2.94189453 44.62890625 C-2.94504669 43.67121338 -2.94819885 42.71352051 -2.95144653 41.72680664 C-2.9494223 40.68516357 -2.94739807 39.64352051 -2.9453125 38.5703125 C-2.94626923 37.50868896 -2.94722595 36.44706543 -2.94821167 35.35327148 C-2.94889364 33.10367778 -2.94703819 30.85408213 -2.94287109 28.60449219 C-2.9375231 25.14774179 -2.94281554 21.69112133 -2.94921875 18.234375 C-2.94855797 16.05468721 -2.94727682 13.8749995 -2.9453125 11.6953125 C-2.94733673 10.65366943 -2.94936096 9.61202637 -2.95144653 8.53881836 C-2.94829437 7.58112549 -2.94514221 6.62343262 -2.94189453 5.63671875 C-2.94109894 4.78924072 -2.94030334 3.9417627 -2.93948364 3.06860352 C-2.77252993 0.52349226 -2.54770486 0.18668527 0 0 Z " fill="#FEFEFE" transform="translate(319.8125,47.8671875)"/>
</svg>
